<svg xmlns="http://www.w3.org/2000/svg" viewBox="0 0 37.35 11.02"><defs><style>.cls-1{fill:#f58220;}.cls-2{fill:none;stroke:#f58220;stroke-miterlimit:10;stroke-width:0.5px;}</style></defs><g id="Layer_2" data-name="Layer 2"><g id="Layer_1-2" data-name="Layer 1"><path class="cls-1" d="M6.74,7.66A2.1,2.1,0,0,1,6,7.53a1.31,1.31,0,0,1-.53-.34,1.44,1.44,0,0,1-.31-.52A2.36,2.36,0,0,1,5.06,6V3.41H6V5.92a1.35,1.35,0,0,0,.06.43,1,1,0,0,0,.15.29.63.63,0,0,0,.24.16,1.06,1.06,0,0,0,.31,0,.76.76,0,0,0,.56-.21,1,1,0,0,0,.21-.72V3.41h.94V6a2.35,2.35,0,0,1-.1.67A1.51,1.51,0,0,1,8,7.2a1.41,1.41,0,0,1-.53.33A2.21,2.21,0,0,1,6.74,7.66Z"/><path class="cls-1" d="M10.6,3.36A2.56,2.56,0,0,1,12,3.69a1.2,1.2,0,0,1,.5,1.07A1.23,1.23,0,0,1,12,5.85a2.65,2.65,0,0,1-1.44.33h-.3V7.57H9.36V3.47A6.21,6.21,0,0,1,10,3.39Zm.06.8h-.37v1.2h.3a1.59,1.59,0,0,0,.73-.13.51.51,0,0,0,.24-.49.6.6,0,0,0-.06-.29.39.39,0,0,0-.18-.18.77.77,0,0,0-.28-.1A2.25,2.25,0,0,0,10.66,4.16Z"/><path class="cls-1" d="M16.86,5.49a2.47,2.47,0,0,1-.16.94,2,2,0,0,1-.48.67,2.06,2.06,0,0,1-.75.39,3.46,3.46,0,0,1-1,.13c-.17,0-.37,0-.59,0a5,5,0,0,1-.66-.08v-4a4.87,4.87,0,0,1,.68-.08l.6,0a3.67,3.67,0,0,1,1,.13,2,2,0,0,1,.75.37,1.82,1.82,0,0,1,.48.66A2.56,2.56,0,0,1,16.86,5.49Zm-2.7,1.32h.36a1.4,1.4,0,0,0,1-.35,1.39,1.39,0,0,0,.34-1,1.34,1.34,0,0,0-.33-1,1.36,1.36,0,0,0-1-.34h-.39Z"/><path class="cls-1" d="M20.29,7.57l-.15-.44C20.09,7,20,6.82,20,6.67H18.36c-.06.15-.11.3-.16.46l-.15.44h-1c.16-.45.3-.86.44-1.24s.28-.74.42-1.08.26-.65.39-1,.27-.6.41-.89h.89c.13.29.27.59.4.89s.27.62.4,1,.27.7.42,1.08.28.79.44,1.24ZM19.16,4.36l-.09.24L18.94,5c-.06.14-.11.29-.18.45s-.13.34-.19.52h1.19c-.07-.18-.13-.36-.19-.52S19.46,5.1,19.4,5s-.1-.26-.14-.36A2.21,2.21,0,0,0,19.16,4.36Z"/><path class="cls-1" d="M24.42,3.41v.8H23.16V7.57h-.93V4.21H21v-.8Z"/><path class="cls-1" d="M25,7.57V3.41h2.81V4.2H26V5h1.67v.76H26v1h2v.79Z"/><path class="cls-1" d="M32.29,5.49a2.47,2.47,0,0,1-.16.94,1.83,1.83,0,0,1-.48.67,2.06,2.06,0,0,1-.75.39,3.46,3.46,0,0,1-1,.13c-.17,0-.36,0-.59,0a5,5,0,0,1-.66-.08v-4a4.87,4.87,0,0,1,.68-.08l.6,0a3.61,3.61,0,0,1,1,.13,2,2,0,0,1,.75.37,1.82,1.82,0,0,1,.48.66A2.56,2.56,0,0,1,32.29,5.49Zm-2.7,1.32H30a1.4,1.4,0,0,0,1-.35,1.34,1.34,0,0,0,.34-1,1.34,1.34,0,0,0-.33-1,1.36,1.36,0,0,0-1-.34h-.39Z"/><rect class="cls-2" x="0.25" y="0.25" width="36.85" height="10.52" rx="1.42"/></g></g></svg>