<svg xmlns="http://www.w3.org/2000/svg" viewBox="0 0 37.51 22.51"><defs><style>.cls-1{fill:#e2b2bd;}</style></defs><g id="Layer_2" data-name="Layer 2"><g id="Layer_1-2" data-name="Layer 1"><path class="cls-1" d="M37.51,4.22v.94a.48.48,0,0,1-.47.47H33.76V16.88H37a.47.47,0,0,1,.47.46v.94a.48.48,0,0,1-.47.47H33.76a1.87,1.87,0,0,1-1.87-1.86H29a2.75,2.75,0,0,1-.62,1.51l-.55.68a2.82,2.82,0,0,1-3.52.71l-1.28,1.57a3.13,3.13,0,0,1-2.43,1.15,3.08,3.08,0,0,1-2-.7l-.42-.36a4.71,4.71,0,0,1-5.92,0L7.56,16.89H5.62a1.87,1.87,0,0,1-1.87,1.86H.47A.47.47,0,0,1,0,18.28v-.94a.47.47,0,0,1,.47-.46H3.75V5.63H.47A.47.47,0,0,1,0,5.16V4.22a.47.47,0,0,1,.47-.46H7.11L10,.83A2.83,2.83,0,0,1,12,0H16.1a2.83,2.83,0,0,1,1.72.6A2.83,2.83,0,0,1,19.48,0h5.91a2.8,2.8,0,0,1,2,.82l3,2.93H37A.48.48,0,0,1,37.51,4.22ZM0,14.06A.94.94,0,1,1,.94,15,.94.94,0,0,1,0,14.06Zm26.83,1.83-7.36-6-1.34,1.22A4,4,0,0,1,12.7,5.22L16.16,2c-.05-.12,0,0-.06-.16H12a.93.93,0,0,0-.66.27L7.89,5.63H5.63V15H8.32l5.27,5a2.82,2.82,0,0,0,3.9-.47l.61-.75,1.79,1.53a1.24,1.24,0,0,0,1.73-.2l2.43-3,1,.84a.94.94,0,0,0,1.32-.14l.55-.68A.94.94,0,0,0,26.83,15.89ZM31.88,5.63H29.61L26.05,2.17a1,1,0,0,0-.67-.28H19.46a.94.94,0,0,0-.63.24L14,6.6a2.16,2.16,0,0,0-.13,3,2.22,2.22,0,0,0,3,.13l4.4-4a.94.94,0,0,1,1.27,1.39L20.87,8.64,28,14.44a3,3,0,0,1,.51.57h3.36Zm5.62,8.43a.94.94,0,1,1-.94-.93A.94.94,0,0,1,37.5,14.06Z"/></g></g></svg>