<?xml version="1.0" encoding="utf-8"?>
<!-- Generator: Adobe Illustrator 27.1.1, SVG Export Plug-In . SVG Version: 6.00 Build 0)  -->
<svg version="1.1" id="Layer_1" xmlns="http://www.w3.org/2000/svg" xmlns:xlink="http://www.w3.org/1999/xlink" x="0px" y="0px"
	 viewBox="0 0 370 370.3" style="enable-background:new 0 0 370 370.3;" xml:space="preserve">
<style type="text/css">
	.st0{fill:#B4015C;}
	.st1{fill:none;}
	.st2{fill:#FFFFFF;}
</style>
<g id="Layer_1-2">
	<rect class="st0" width="370.3" height="370.3"/>
	<rect class="st1" width="370.3" height="370.3"/>
	<g>
		<path class="st2" d="M93.7,134.2v-24.8c-4.1-6.3-7.9-12.4-11.4-18.3c-3.5-5.9-6.7-11.6-9.6-17.2h6.9c2.4,5.1,5.1,10.3,8.1,15.5
			c2.9,5.2,6,10.2,9.2,15c3.1-4.7,6.1-9.7,9.1-15c3-5.2,5.7-10.4,8.2-15.5h6.4c-3.1,5.5-6.3,11.2-9.7,17.2
			c-3.4,5.9-7.1,12-11.1,18.1v24.9H93.7z"/>
		<path class="st2" d="M180.4,104.1c0,5.2-0.8,9.7-2.3,13.6c-1.5,3.9-3.5,7.2-6.1,9.9c-2.6,2.6-5.6,4.6-9,5.9c-3.4,1.3-7,2-10.9,2
			s-7.4-0.7-10.9-2c-3.4-1.3-6.4-3.3-9-5.9c-2.6-2.6-4.6-5.9-6.1-9.9c-1.5-3.9-2.3-8.5-2.3-13.6c0-5.2,0.8-9.7,2.3-13.6
			c1.5-3.9,3.5-7.2,6.1-9.8c2.6-2.6,5.6-4.6,9-5.9c3.4-1.3,7-2,10.9-2s7.4,0.7,10.9,2c3.4,1.3,6.4,3.3,9,5.9
			c2.6,2.6,4.6,5.9,6.1,9.8C179.7,94.4,180.4,98.9,180.4,104.1z M174.2,104.1c0-4.1-0.5-7.7-1.6-10.9c-1-3.2-2.5-5.9-4.4-8.2
			c-1.9-2.3-4.2-4-6.9-5.2c-2.7-1.2-5.7-1.8-9.1-1.8c-3.4,0-6.4,0.6-9.1,1.8c-2.7,1.2-5,2.9-6.9,5.2c-1.9,2.3-3.4,5-4.4,8.2
			c-1,3.2-1.6,6.8-1.6,10.9c0,4.1,0.5,7.7,1.6,10.9c1,3.2,2.5,5.9,4.4,8.2c1.9,2.3,4.2,4,6.9,5.2c2.7,1.2,5.7,1.8,9.1,1.8
			c3.4,0,6.4-0.6,9.1-1.8c2.7-1.2,5-3,6.9-5.2c1.9-2.3,3.4-5,4.4-8.2C173.7,111.8,174.2,108.1,174.2,104.1z"/>
		<path class="st2" d="M215.4,135.5c-4,0-7.4-0.6-10.2-1.8c-2.8-1.2-5.1-2.9-6.8-5c-1.7-2.1-3-4.6-3.8-7.5c-0.8-2.9-1.2-5.9-1.2-9.2
			V74h5.9v37.1c0,3.3,0.4,6.2,1.2,8.6c0.8,2.4,1.9,4.4,3.3,5.9s3.1,2.7,5,3.5c2,0.8,4.2,1.1,6.6,1.1c2.4,0,4.6-0.4,6.6-1.1
			c2-0.8,3.6-1.9,5-3.5s2.5-3.5,3.3-5.9c0.8-2.4,1.2-5.3,1.2-8.6V74h5.9v37.9c0,3.3-0.4,6.4-1.2,9.2c-0.8,2.9-2,5.4-3.8,7.5
			c-1.7,2.1-4,3.8-6.8,5C222.7,134.9,219.3,135.5,215.4,135.5z"/>
		<path class="st2" d="M292.8,92.1c0,4.5-1.2,8.1-3.6,10.7c-2.4,2.6-5.5,4.5-9.4,5.6c0.9,1.2,2.1,2.7,3.6,4.7c1.5,2,3,4.1,4.6,6.5
			s3.1,4.8,4.6,7.3c1.5,2.5,2.8,5,3.8,7.3h-6.3c-1.2-2.3-2.5-4.6-4-6.9c-1.4-2.3-2.9-4.6-4.3-6.7s-2.9-4.2-4.3-6
			c-1.4-1.9-2.6-3.5-3.6-4.9c-1.9,0.2-3.7,0.3-5.6,0.3h-9.7v24.3h-5.9V75.2c2.1-0.6,4.5-1,7.3-1.3c2.8-0.3,5.4-0.4,7.8-0.4
			c8.3,0,14.5,1.6,18.7,4.7C290.7,81.3,292.8,86,292.8,92.1z M268.5,78.6c-2.2,0-4.1,0.1-5.8,0.2c-1.7,0.1-3,0.3-4.1,0.4v25.6h8.2
			c2.7,0,5.3-0.1,7.7-0.4c2.4-0.3,4.5-0.8,6.3-1.7c1.8-0.9,3.2-2.2,4.3-3.9c1-1.7,1.6-4,1.6-6.9c0-2.7-0.5-4.9-1.6-6.6
			c-1-1.7-2.4-3.1-4.1-4.1c-1.7-1-3.6-1.7-5.8-2.1C273.1,78.8,270.8,78.6,268.5,78.6z"/>
		<path class="st2" d="M111.4,204v9.5h-38v-60.2h10.9V204H111.4z"/>
		<path class="st2" d="M172.2,183.3c0,5.2-0.8,9.7-2.3,13.6c-1.5,3.9-3.6,7.2-6.3,9.9c-2.6,2.6-5.7,4.6-9.2,5.9
			c-3.5,1.3-7.3,2-11.3,2c-4,0-7.8-0.7-11.3-2c-3.6-1.3-6.7-3.3-9.3-5.9c-2.6-2.6-4.7-5.9-6.3-9.9c-1.6-3.9-2.3-8.5-2.3-13.6
			c0-5.2,0.8-9.7,2.3-13.6s3.7-7.2,6.4-9.9c2.7-2.7,5.8-4.7,9.3-6c3.5-1.3,7.3-2,11.2-2c3.9,0,7.7,0.7,11.2,2c3.5,1.3,6.6,3.3,9.2,6
			c2.6,2.7,4.7,5.9,6.3,9.9C171.4,173.6,172.2,178.1,172.2,183.3z M125.2,183.3c0,3.3,0.4,6.3,1.2,9c0.8,2.7,2,5,3.5,6.9
			c1.5,1.9,3.4,3.3,5.6,4.4c2.2,1,4.7,1.6,7.5,1.6c2.7,0,5.2-0.5,7.4-1.6c2.2-1,4.1-2.5,5.6-4.4c1.5-1.9,2.7-4.2,3.5-6.9
			c0.8-2.7,1.2-5.7,1.2-9s-0.4-6.3-1.2-9c-0.8-2.7-2-5-3.5-6.9c-1.5-1.9-3.4-3.3-5.6-4.4c-2.2-1-4.7-1.6-7.4-1.6
			c-2.8,0-5.3,0.5-7.5,1.6c-2.2,1-4.1,2.5-5.6,4.4c-1.5,1.9-2.7,4.2-3.5,6.9C125.6,177,125.2,180,125.2,183.3z"/>
		<path class="st2" d="M212.3,161.5c-6.2,0-10.9,1.9-14.2,5.8c-3.3,3.9-4.9,9.2-4.9,16c0,3.2,0.4,6.2,1.2,8.9s1.9,5,3.5,6.9
			c1.5,1.9,3.4,3.4,5.7,4.5c2.3,1.1,5,1.6,8,1.6c1.9,0,3.6-0.1,5-0.2c1.4-0.1,2.5-0.3,3.3-0.6v-21.6h10.9v28.9
			c-1.5,0.6-4.1,1.2-7.6,1.9c-3.6,0.7-7.7,1-12.4,1c-4.3,0-8.3-0.7-11.9-2.1s-6.6-3.4-9.2-6.1c-2.5-2.7-4.5-5.9-5.9-9.8
			c-1.4-3.9-2.1-8.3-2.1-13.4s0.8-9.5,2.3-13.4c1.5-3.9,3.6-7.2,6.3-9.9c2.7-2.7,5.8-4.7,9.4-6.1c3.6-1.4,7.4-2.1,11.5-2.1
			c2.8,0,5.3,0.2,7.4,0.6c2.2,0.4,4,0.8,5.6,1.3c1.6,0.5,2.8,1,3.9,1.5s1.7,0.9,2.1,1.1l-3.3,8.9c-1.7-1-3.9-1.9-6.5-2.6
			C217.9,161.8,215.1,161.5,212.3,161.5z"/>
		<path class="st2" d="M299.4,183.3c0,5.2-0.8,9.7-2.3,13.6c-1.5,3.9-3.6,7.2-6.3,9.9c-2.6,2.6-5.7,4.6-9.2,5.9
			c-3.5,1.3-7.3,2-11.3,2c-4,0-7.8-0.7-11.3-2c-3.6-1.3-6.7-3.3-9.3-5.9c-2.6-2.6-4.7-5.9-6.3-9.9c-1.6-3.9-2.3-8.5-2.3-13.6
			c0-5.2,0.8-9.7,2.3-13.6s3.7-7.2,6.4-9.9c2.7-2.7,5.8-4.7,9.3-6c3.5-1.3,7.3-2,11.2-2c3.9,0,7.7,0.7,11.2,2c3.5,1.3,6.6,3.3,9.2,6
			c2.6,2.7,4.7,5.9,6.3,9.9S299.4,178.1,299.4,183.3z M252.4,183.3c0,3.3,0.4,6.3,1.2,9c0.8,2.7,2,5,3.5,6.9
			c1.5,1.9,3.4,3.3,5.6,4.4c2.2,1,4.7,1.6,7.5,1.6c2.7,0,5.2-0.5,7.4-1.6c2.2-1,4.1-2.5,5.6-4.4c1.5-1.9,2.7-4.2,3.5-6.9
			c0.8-2.7,1.2-5.7,1.2-9s-0.4-6.3-1.2-9c-0.8-2.7-2-5-3.5-6.9c-1.5-1.9-3.4-3.3-5.6-4.4c-2.2-1-4.7-1.6-7.4-1.6
			c-2.8,0-5.3,0.5-7.5,1.6c-2.2,1-4.1,2.5-5.6,4.4c-1.5,1.9-2.7,4.2-3.5,6.9C252.8,177,252.4,180,252.4,183.3z"/>
		<path class="st2" d="M126.5,232.4h5.9v60.2h-5.9v-28.9H93.8v28.9h-5.9v-60.2h5.9v26.1h32.7V232.4z"/>
		<path class="st2" d="M148,292.6v-60.2h34.7v5.1h-28.8v20.9h25.7v5h-25.7v24H185v5.1H148z"/>
		<path class="st2" d="M236.3,250.5c0,4.5-1.2,8.1-3.6,10.7c-2.4,2.6-5.5,4.5-9.4,5.6c0.9,1.2,2.1,2.7,3.6,4.7s3,4.1,4.6,6.5
			c1.6,2.3,3.1,4.8,4.6,7.3c1.5,2.5,2.8,5,3.8,7.3h-6.3c-1.2-2.3-2.5-4.6-4-6.9c-1.4-2.3-2.9-4.6-4.3-6.7c-1.5-2.2-2.9-4.2-4.3-6
			c-1.4-1.9-2.6-3.5-3.6-4.9c-1.9,0.2-3.7,0.3-5.6,0.3h-9.7v24.3h-5.9v-59.1c2.1-0.6,4.5-1,7.3-1.3c2.8-0.3,5.4-0.4,7.8-0.4
			c8.3,0,14.5,1.6,18.7,4.7C234.2,239.7,236.3,244.4,236.3,250.5z M212,237c-2.2,0-4.1,0.1-5.8,0.2s-3,0.3-4.1,0.4v25.6h8.2
			c2.7,0,5.3-0.1,7.7-0.4c2.4-0.3,4.5-0.8,6.3-1.7c1.8-0.9,3.2-2.2,4.3-3.9c1-1.7,1.6-4,1.6-6.9c0-2.7-0.5-4.9-1.6-6.6
			c-1-1.7-2.4-3.1-4.1-4.1c-1.7-1-3.6-1.7-5.8-2.1C216.6,237.2,214.3,237,212,237z"/>
		<path class="st2" d="M249.9,292.6v-60.2h34.7v5.1h-28.8v20.9h25.7v5h-25.7v24h31.1v5.1H249.9z"/>
	</g>
</g>
</svg>
