<svg xmlns="http://www.w3.org/2000/svg" viewBox="0 0 30 22.5"><defs><style>.cls-1{fill:#bcbec0;}</style></defs><g id="Layer_2" data-name="Layer 2"><g id="Layer_1-2" data-name="Layer 1"><path class="cls-1" d="M20.42,10.75a.7.7,0,0,1,0,1l-9.64,9.61a.71.71,0,0,1-1,0l-.42-.42a.69.69,0,0,1,0-1l7.73-7.7H.7a.71.71,0,0,1-.7-.71V11a.71.71,0,0,1,.7-.71H17.1L9.37,2.55a.71.71,0,0,1,0-1l.42-.42a.71.71,0,0,1,1,0ZM27.19,22.5H19.45a.71.71,0,0,1-.7-.7v-.47a.7.7,0,0,1,.7-.7h7.74a.94.94,0,0,0,.93-.94V2.81a.93.93,0,0,0-.93-.93H19.45a.71.71,0,0,1-.7-.71V.7a.71.71,0,0,1,.7-.7h7.74A2.81,2.81,0,0,1,30,2.81V19.69A2.81,2.81,0,0,1,27.19,22.5Z"/></g></g></svg>