<svg xmlns="http://www.w3.org/2000/svg" viewBox="0 0 30 30"><defs><style>.cls-1{fill:#e2b2bd;}</style></defs><g id="Layer_2" data-name="Layer 2"><g id="Layer_1-2" data-name="Layer 1"><path class="cls-1" d="M30,24.14A6.16,6.16,0,0,1,23.57,30H6.43A6.16,6.16,0,0,1,0,24.14c0-1.15-.54-10,10.38-17L7.82,2.92A1.88,1.88,0,0,1,9.38,0H20.62a1.87,1.87,0,0,1,1.56,2.91L19.62,7.13C30.48,14.06,30,23,30,24.14ZM28.12,24c.05-3.51-1.19-10.16-9.89-15.52H11.78c-8.73,5.37-10,12-9.9,15.5v.2a4.3,4.3,0,0,0,4.55,4H23.57a4.3,4.3,0,0,0,4.55-4ZM12.25,6.56h5.5l2.87-4.68H9.38Z"/></g></g></svg>