<svg xmlns="http://www.w3.org/2000/svg" xmlns:xlink="http://www.w3.org/1999/xlink" viewBox="0 0 56.34 56.34"><defs><style>.cls-1{fill:none;}.cls-2{fill:#b4015c;}.cls-3{clip-path:url(#clip-path);}.cls-4{fill:#fff;}</style><clipPath id="clip-path"><rect class="cls-1" width="56.34" height="56.34"/></clipPath></defs><g id="Layer_2" data-name="Layer 2"><g id="Layer_1-2" data-name="Layer 1"><rect class="cls-2" width="56.34" height="56.34"/><g class="cls-3"><path class="cls-4" d="M24,45.52a6,6,0,0,1,.34-2,5.22,5.22,0,0,1,1-1.68,4.87,4.87,0,0,1,1.57-1.15,5.08,5.08,0,0,1,2.1-.42,5,5,0,0,1,2.09.42,4.91,4.91,0,0,1,1.58,1.15,5.2,5.2,0,0,1,1,1.68,6.09,6.09,0,0,1,0,4.07,5.15,5.15,0,0,1-1,1.67A4.79,4.79,0,0,1,31,50.36a5.32,5.32,0,0,1-4.19,0,4.71,4.71,0,0,1-1.57-1.13,5.1,5.1,0,0,1-1-1.67,6,6,0,0,1-.34-2m-1.59-2.88a7.9,7.9,0,0,0,0,5.74,6.86,6.86,0,0,0,1.5,2.27,6.72,6.72,0,0,0,2.26,1.5A7.18,7.18,0,0,0,29,52.7a7.09,7.09,0,0,0,2.82-.55A6.89,6.89,0,0,0,34,50.66a7.12,7.12,0,0,0,1.5-2.28,8,8,0,0,0,0-5.74A6.91,6.91,0,0,0,34,40.37a7.07,7.07,0,0,0-2.27-1.5,7.66,7.66,0,0,0-5.65,0,7,7,0,0,0-2.26,1.5,6.91,6.91,0,0,0-1.5,2.27m-17-13.46a7.84,7.84,0,0,1,.21-.79,5.41,5.41,0,0,1,.84-1.61A5,5,0,0,1,7.9,25.5,4.11,4.11,0,0,1,10,25a4.93,4.93,0,0,1,1.89.34,4,4,0,0,1,1.41,1,4.46,4.46,0,0,1,.95,1.53,5.63,5.63,0,0,1,.33,1.33Zm0,1.87H16.58v-1.2a7.76,7.76,0,0,0-.39-2.42A6.3,6.3,0,0,0,15,25.27a6.08,6.08,0,0,0-2.06-1.55,6.66,6.66,0,0,0-2.87-.58,6.78,6.78,0,0,0-2.65.53,6.59,6.59,0,0,0-2.14,1.52A7.39,7.39,0,0,0,3.85,27.5a8,8,0,0,0-.52,2.88,8.73,8.73,0,0,0,.5,3,6.88,6.88,0,0,0,1.43,2.4,6.68,6.68,0,0,0,2.21,1.58,7.11,7.11,0,0,0,2.83.56,7,7,0,0,0,3.2-.7,7.19,7.19,0,0,0,2.42-2l.39-.5-1.46-1.28-.44.58a4.9,4.9,0,0,1-4.11,2,4.71,4.71,0,0,1-2.21-.48,4.62,4.62,0,0,1-1.56-1.26,5.38,5.38,0,0,1-.92-1.8,6,6,0,0,1-.28-1.41M24.24,37.2l5.24-13.7H27.29l-4,10.63-4-10.63H17.11l5.22,13.7Zm17.94-6.84a6,6,0,0,1-.35,2,5.1,5.1,0,0,1-1,1.67,4.88,4.88,0,0,1-1.57,1.14,5.39,5.39,0,0,1-4.19,0,4.68,4.68,0,0,1-1.57-1.14,5,5,0,0,1-1-1.67,6.23,6.23,0,0,1,0-4.06,5.06,5.06,0,0,1,1-1.69,4.68,4.68,0,0,1,1.57-1.14,5.44,5.44,0,0,1,4.19,0,4.78,4.78,0,0,1,1.57,1.14,5.25,5.25,0,0,1,1,1.68,6,6,0,0,1,.35,2m1.58,2.86a7.9,7.9,0,0,0,0-5.74,6.66,6.66,0,0,0-1.5-2.27A6.77,6.77,0,0,0,40,23.71a7.66,7.66,0,0,0-5.65,0,6.82,6.82,0,0,0-3.76,3.77,7.9,7.9,0,0,0,0,5.74,6.86,6.86,0,0,0,1.5,2.27A7,7,0,0,0,34.35,37a7.27,7.27,0,0,0,2.82.54A7.35,7.35,0,0,0,40,37a6.77,6.77,0,0,0,2.26-1.5,6.66,6.66,0,0,0,1.5-2.27M49.88,47.3a5.23,5.23,0,0,1-1,1.63,4.58,4.58,0,0,1-1.51,1.12,5.15,5.15,0,0,1-4,0,4.37,4.37,0,0,1-1.49-1.12,5.09,5.09,0,0,1-1-1.63,5.66,5.66,0,0,1-.33-1.95,5.49,5.49,0,0,1,.34-2,5,5,0,0,1,1-1.62,4.37,4.37,0,0,1,1.49-1.12,4.83,4.83,0,0,1,2-.41,4.77,4.77,0,0,1,2,.41,4.58,4.58,0,0,1,1.51,1.12,5.18,5.18,0,0,1,1,1.62,5.79,5.79,0,0,1,0,3.91M53,50.44H50a6,6,0,0,0,1.47-1.79,6.87,6.87,0,0,0,.81-3.31,7.31,7.31,0,0,0-.53-2.8,6.61,6.61,0,0,0-3.65-3.69,7.51,7.51,0,0,0-5.48,0,6.54,6.54,0,0,0-2.2,1.47A6.75,6.75,0,0,0,39,42.54a7.83,7.83,0,0,0,0,5.61,6.69,6.69,0,0,0,1.46,2.23,6.42,6.42,0,0,0,2.2,1.46,7.13,7.13,0,0,0,2.75.53H53Z"/></g></g></g></svg>