<svg xmlns="http://www.w3.org/2000/svg" viewBox="0 0 30.01 22.5"><defs><style>.cls-1{fill:#bcbec0;}</style></defs><g id="Layer_2" data-name="Layer 2"><g id="Layer_1-2" data-name="Layer 1"><path class="cls-1" d="M10.55,0a.71.71,0,0,1,.7.7v.47a.71.71,0,0,1-.7.71H2.81a.93.93,0,0,0-.93.93V19.69a.94.94,0,0,0,.93.94h7.74a.7.7,0,0,1,.7.7v.47a.71.71,0,0,1-.7.7H2.81A2.81,2.81,0,0,1,0,19.69V2.81A2.81,2.81,0,0,1,2.81,0Zm9.61,1.14,9.64,9.61a.7.7,0,0,1,0,1l-9.64,9.61a.71.71,0,0,1-1,0l-.42-.42a.69.69,0,0,1,0-1l7.73-7.7H10.08a.7.7,0,0,1-.7-.71V11a.7.7,0,0,1,.7-.71h16.4l-7.74-7.7a.71.71,0,0,1,0-1l.42-.42A.72.72,0,0,1,20.16,1.14Z"/></g></g></svg>