<svg xmlns="http://www.w3.org/2000/svg" viewBox="0 0 37.35 11.02"><defs><style>.cls-1{fill:#0db14b;}.cls-2{fill:none;stroke:#0db14b;stroke-miterlimit:10;stroke-width:0.5px;}</style></defs><g id="Layer_2" data-name="Layer 2"><g id="Layer_1-2" data-name="Layer 1"><path class="cls-1" d="M14.83,7.59q-.4-.72-.87-1.41a14.49,14.49,0,0,0-1-1.31V7.59H12V3.43h.76a4.51,4.51,0,0,1,.44.49l.49.61c.17.22.33.45.5.68l.46.68V3.43h.93V7.59Z"/><path class="cls-1" d="M16.58,7.59V3.43h2.81v.79H17.51V5h1.67V5.8H17.51v1h2v.79Z"/><path class="cls-1" d="M23,3.88c0,.16.1.34.16.55s.12.42.18.64.14.44.2.66l.2.61c.05-.2.11-.42.16-.66s.11-.49.15-.75l.15-.76c0-.26.09-.5.13-.74h1c-.14.7-.31,1.4-.49,2.12s-.38,1.4-.59,2h-.86c-.14-.38-.27-.79-.41-1.21l-.39-1.27c-.12.43-.25.85-.38,1.27s-.26.83-.4,1.21h-.86c-.21-.64-.41-1.33-.59-2S20,4.13,19.85,3.43h1c0,.24.08.48.13.74l.15.76c.05.26.11.5.16.75s.11.46.17.66c.07-.2.14-.4.21-.62s.13-.44.2-.66.12-.43.17-.64.11-.38.15-.54Z"/><rect class="cls-2" x="0.25" y="0.25" width="36.85" height="10.52" rx="1.42"/></g></g></svg>