<svg xmlns="http://www.w3.org/2000/svg" viewBox="0 0 33.75 26.25"><defs><style>.cls-1{fill:#e2b2bd;}</style></defs><g id="Layer_2" data-name="Layer 2"><g id="Layer_1-2" data-name="Layer 1"><path class="cls-1" d="M33.75,16.88a16.71,16.71,0,0,1-2.29,8.48,1.86,1.86,0,0,1-1.61.89H3.9a1.86,1.86,0,0,1-1.61-.89A16.71,16.71,0,0,1,0,16.88a16.88,16.88,0,1,1,33.75,0Zm-1.88,0a15,15,0,1,0-28,7.53l25.94,0A14.85,14.85,0,0,0,31.87,16.88ZM22,6.87l-3,8.76A3.74,3.74,0,1,1,16.88,15a2.85,2.85,0,0,1,.29,0l3-8.77A.94.94,0,0,1,22,6.87ZM18.75,18.75a1.88,1.88,0,1,0-1.87,1.88A1.87,1.87,0,0,0,18.75,18.75Z"/></g></g></svg>