<svg xmlns="http://www.w3.org/2000/svg" viewBox="0 0 22.5 28.13"><defs><style>.cls-1{fill:#e2b2bd;}</style></defs><g id="Layer_2" data-name="Layer 2"><g id="Layer_1-2" data-name="Layer 1"><path class="cls-1" d="M0,12.6v-7H0A3.63,3.63,0,0,1,.45,4L.29,3.71A3.26,3.26,0,0,1,0,2.48,2.48,2.48,0,0,1,2.48,0h5A13.14,13.14,0,0,1,20.63,13.13V24.38H18.75V13.13A11.25,11.25,0,0,0,7.5,1.88h-5a.63.63,0,0,0-.51,1l.72,1.44c-.44.44-.81.71-.81,1.32v7a1.78,1.78,0,0,0,1,1.49L4.9,15a1.9,1.9,0,0,0,.66.14A2.06,2.06,0,0,0,6.17,15l.65-.26a1.87,1.87,0,0,0,.95-1l.47-1.56a1.4,1.4,0,0,1,.63-.8l1-.56v3.65a2.66,2.66,0,0,1-1.35,2.18L6,18.09a4.47,4.47,0,0,0-2.24,3.64v2.65H1.88V21.71a6.61,6.61,0,0,1,2.58-4.87c-.22-.08-.14-.05-2.37-1A3.79,3.79,0,0,1,0,12.6ZM22.5,26.72v.94a.47.47,0,0,1-.47.47H.47A.47.47,0,0,1,0,27.66v-.94a.47.47,0,0,1,.47-.47H22A.47.47,0,0,1,22.5,26.72ZM4.92,6.56A1.18,1.18,0,1,1,3.75,7.73,1.17,1.17,0,0,1,4.92,6.56Z"/></g></g></svg>