<svg xmlns="http://www.w3.org/2000/svg" viewBox="0 0 36.85 10.52"><defs><style>.cls-1{fill:#ed1c24;}.cls-2{fill:#fff;}</style></defs><g id="Layer_2" data-name="Layer 2"><g id="Layer_1-2" data-name="Layer 1"><rect class="cls-1" width="36.85" height="10.52" rx="1.42"/><path class="cls-2" d="M13.05,6.63a1.39,1.39,0,0,0,.32,0,.51.51,0,0,0,.21-.09.3.3,0,0,0,.11-.14.47.47,0,0,0,0-.17.42.42,0,0,0-.19-.34,2.67,2.67,0,0,0-.66-.29,3,3,0,0,1-.41-.17,1.54,1.54,0,0,1-.37-.23,1.1,1.1,0,0,1-.26-.34,1.07,1.07,0,0,1-.1-.49,1.24,1.24,0,0,1,.1-.52,1.3,1.3,0,0,1,.31-.39,1.37,1.37,0,0,1,.48-.25,2.11,2.11,0,0,1,.64-.09,2.53,2.53,0,0,1,.72.09,2.86,2.86,0,0,1,.51.2l-.27.74A2.27,2.27,0,0,0,13.83,4a1.53,1.53,0,0,0-.51-.07,1,1,0,0,0-.49.09.33.33,0,0,0-.14.29.3.3,0,0,0,.05.19.67.67,0,0,0,.15.14,1.23,1.23,0,0,0,.23.11l.29.11c.21.08.4.16.56.24a1.28,1.28,0,0,1,.4.27,1,1,0,0,1,.24.36,1.64,1.64,0,0,1,.07.52,1.1,1.1,0,0,1-.4.9,2,2,0,0,1-1.23.32,3.73,3.73,0,0,1-.5,0,3.42,3.42,0,0,1-.4-.09,1.63,1.63,0,0,1-.29-.1l-.21-.1.27-.74a2.6,2.6,0,0,0,.46.18A2.51,2.51,0,0,0,13.05,6.63Z"/><path class="cls-2" d="M15.4,7.34V3.19h2.81V4H16.34v.82H18v.77H16.34v1h2v.78Z"/><path class="cls-2" d="M21.82,6.54v.8H19V3.19H20V6.54Z"/><path class="cls-2" d="M25.2,6.54v.8H22.42V3.19h.93V6.54Z"/></g></g></svg>