<svg xmlns="http://www.w3.org/2000/svg" viewBox="0 0 30 22.5"><defs><style>.cls-1{fill:#e2b2bd;}</style></defs><g id="Layer_2" data-name="Layer 2"><g id="Layer_1-2" data-name="Layer 1"><path class="cls-1" d="M30,21.09V22a.47.47,0,0,1-.47.47H.94A.94.94,0,0,1,0,21.56V.47A.47.47,0,0,1,.47,0h.94a.47.47,0,0,1,.47.47V20.63H29.53A.46.46,0,0,1,30,21.09ZM10.69,6.78a.94.94,0,0,1,1.32,0l5,5,4.82-4.82L19.17,4.3a1.42,1.42,0,0,1,1-2.42h7a1,1,0,0,1,.95.94v7a1.43,1.43,0,0,1-1.44,1.43,1.38,1.38,0,0,1-1-.42L23.12,8.25l-5.49,5.48a.92.92,0,0,1-1.32,0l-5-5L7.09,13a.48.48,0,0,1-.67,0l-.66-.67a.47.47,0,0,1,0-.66Zm15.56,2v-5h-5Z"/></g></g></svg>