<svg xmlns="http://www.w3.org/2000/svg" viewBox="0 0 37.35 11.02"><defs><style>.cls-1{fill:#ed1c24;}.cls-2{fill:none;stroke:#ed1c24;stroke-miterlimit:10;stroke-width:0.5px;}</style></defs><g id="Layer_2" data-name="Layer 2"><g id="Layer_1-2" data-name="Layer 1"><path class="cls-1" d="M12.31,6.88a1.55,1.55,0,0,0,.33,0,.67.67,0,0,0,.21-.09.28.28,0,0,0,.1-.14.47.47,0,0,0,0-.17.39.39,0,0,0-.19-.34,2.67,2.67,0,0,0-.66-.29c-.13-.05-.27-.1-.41-.17a1.69,1.69,0,0,1-.36-.23,1.13,1.13,0,0,1-.27-.34,1.22,1.22,0,0,1-.1-.49,1.24,1.24,0,0,1,.11-.52,1.05,1.05,0,0,1,.31-.39,1.37,1.37,0,0,1,.48-.25,2,2,0,0,1,.63-.09,2.65,2.65,0,0,1,.73.09,2.73,2.73,0,0,1,.5.2l-.27.74a1.76,1.76,0,0,0-.39-.16,1.53,1.53,0,0,0-.51-.07,1,1,0,0,0-.48.09.32.32,0,0,0-.15.29.31.31,0,0,0,.06.19.41.41,0,0,0,.15.14,1,1,0,0,0,.23.11l.28.11a5.46,5.46,0,0,1,.57.24,1.13,1.13,0,0,1,.39.27.88.88,0,0,1,.24.36,1.62,1.62,0,0,1,.08.52,1.1,1.1,0,0,1-.41.9,2,2,0,0,1-1.23.32,3.84,3.84,0,0,1-.5,0,3.75,3.75,0,0,1-.39-.09,1.63,1.63,0,0,1-.29-.1l-.21-.1.26-.74a3,3,0,0,0,.46.18A2.62,2.62,0,0,0,12.31,6.88Z"/><path class="cls-1" d="M18.63,5.51a2.47,2.47,0,0,1-.16.94,2,2,0,0,1-.43.68,1.88,1.88,0,0,1-.66.41,2.43,2.43,0,0,1-.82.14,2.36,2.36,0,0,1-.8-.14,1.72,1.72,0,0,1-.66-.41,1.92,1.92,0,0,1-.45-.68,2.47,2.47,0,0,1-.16-.94,2.5,2.5,0,0,1,.17-.94,2,2,0,0,1,.45-.68,1.88,1.88,0,0,1,.66-.41,2.3,2.3,0,0,1,.79-.14,2.36,2.36,0,0,1,.8.14,1.72,1.72,0,0,1,.66.41,2,2,0,0,1,.45.68A2.5,2.5,0,0,1,18.63,5.51Zm-3.17,0a1.84,1.84,0,0,0,.07.55,1.17,1.17,0,0,0,.22.43.89.89,0,0,0,.34.27,1,1,0,0,0,.47.1,1,1,0,0,0,.46-.1.85.85,0,0,0,.35-.27,1.17,1.17,0,0,0,.22-.43,1.84,1.84,0,0,0,.07-.55A1.88,1.88,0,0,0,17.59,5a1.17,1.17,0,0,0-.22-.43A.85.85,0,0,0,17,4.26a1,1,0,0,0-.46-.1,1.16,1.16,0,0,0-.47.1,1,1,0,0,0-.34.28,1.2,1.2,0,0,0-.22.42A1.93,1.93,0,0,0,15.46,5.51Z"/><path class="cls-1" d="M22.19,6.79v.8H19.41V3.44h.94V6.79Z"/><path class="cls-1" d="M26.43,5.51a2.52,2.52,0,0,1-.17,1,1.85,1.85,0,0,1-.47.66,2,2,0,0,1-.76.4,3.77,3.77,0,0,1-1,.13l-.59,0a4.57,4.57,0,0,1-.66-.09v-4a4.72,4.72,0,0,1,.67-.08l.61,0a3.68,3.68,0,0,1,1,.12,2,2,0,0,1,.74.38,1.61,1.61,0,0,1,.48.66A2.5,2.5,0,0,1,26.43,5.51ZM23.72,6.83h.36a1.39,1.39,0,0,0,1.05-.35,1.37,1.37,0,0,0,.33-1,1.37,1.37,0,0,0-.32-1,1.4,1.4,0,0,0-1-.33h-.19l-.2,0Z"/><rect class="cls-2" x="0.25" y="0.25" width="36.85" height="10.52" rx="1.42"/></g></g></svg>