<svg xmlns="http://www.w3.org/2000/svg" viewBox="0 0 26.25 30"><defs><style>.cls-1{fill:#e2b2bd;}</style></defs><g id="Layer_2" data-name="Layer 2"><g id="Layer_1-2" data-name="Layer 1"><path class="cls-1" d="M26.25,5.63V24.38C26.25,28.9,17.7,30,13.13,30S0,28.91,0,24.38V5.63C0,1.1,8.55,0,13.13,0S26.25,1.09,26.25,5.63Zm-24.37,0V7.5c0,2.07,5,3.75,11.25,3.75S24.37,9.57,24.37,7.5V5.63c0-2.07-5-3.75-11.24-3.75S1.88,3.56,1.88,5.63Zm11.25,7.5c-4.41,0-8.84-.8-11.25-2.5v2.5c0,2.06,5,3.75,11.25,3.75s11.24-1.69,11.24-3.75v-2.5C22,12.33,17.53,13.13,13.13,13.13Zm0,5.62c-4.41,0-8.84-.79-11.25-2.49v2.49c0,2.07,5,3.75,11.25,3.75s11.24-1.68,11.24-3.75V16.26C22,18,17.53,18.75,13.13,18.75Zm0,5.63c-4.41,0-8.84-.8-11.25-2.5v2.5c0,2.06,5,3.75,11.25,3.75s11.24-1.69,11.24-3.75v-2.5C22,23.58,17.53,24.38,13.13,24.38Z"/></g></g></svg>