<svg xmlns="http://www.w3.org/2000/svg" xmlns:xlink="http://www.w3.org/1999/xlink" viewBox="0 0 3129.47 647.79"><defs><style>.cls-1{fill:url(#linear-gradient);}.cls-2{fill:none;}.cls-3{clip-path:url(#clip-path);}.cls-4{mask:url(#mask);}.cls-5{fill:#c7c8ca;}.cls-6{filter:url(#luminosity-noclip);}</style><linearGradient id="linear-gradient" x1="1.74" y1="495.83" x2="2.74" y2="495.83" gradientTransform="matrix(-971.11, 0, 0, 971.11, 2274.98, -481432.76)" gradientUnits="userSpaceOnUse"><stop offset="0" stop-color="#fff"/><stop offset="1"/></linearGradient><clipPath id="clip-path" transform="translate(1585.83 516.46)"><rect class="cls-2" width="819.43" height="134.57"/></clipPath><filter id="luminosity-noclip" x="-1585.83" y="-516.46" width="3129.47" height="703.23" filterUnits="userSpaceOnUse" color-interpolation-filters="sRGB"><feFlood flood-color="#fff" result="bg"/><feBlend in="SourceGraphic" in2="bg"/></filter><mask id="mask" x="0" y="0" width="3129.47" height="703.23" maskUnits="userSpaceOnUse"><g class="cls-6"><g transform="translate(1585.83 516.46)"><rect class="cls-1" x="-3.3" y="-22.76" width="826.03" height="186.62" transform="translate(-3.3 22.98) rotate(-3.2)"/></g></g></mask></defs><g id="Layer_2" data-name="Layer 2"><g id="Layer_1-2" data-name="Layer 1"><g class="cls-3"><g class="cls-4"><path class="cls-5" d="M-881.13-428.62c-3,37.28,13.39,64.81,44.72,84.73s77.59,32.28,134.42,39.36C-432.88-271,73.56-356,353.88-321.09c64.25,8,116.61,22.31,151.49,45.75s52.29,56,46.74,100.6c-4.12,33.08-20.89,72.8-52.61,120.32-19.8,29.68-30.14,53-32.35,70.73C465.44,30,468.59,40.45,476,47.9s19,11.91,34.17,13.8c100.62,12.52,358.91-88.1,592.15-191.83s441.33-210.59,441.33-210.59l-.21-.41s-3.25,1.67-9.39,4.79c-46.09,23.43-255,128.7-475.89,225.17S604.27,73,510.22,61.25c-15.11-1.88-26.61-6.33-33.9-13.67s-10.4-17.6-8.71-31.22c2.19-17.63,12.49-40.88,32.28-70.52,31.73-47.56,48.54-87.34,52.68-120.52,5.58-44.77-12-77.54-46.94-101s-87.41-37.82-151.69-45.82C73.5-356.47-432.94-271.47-701.93-305c-56.8-7.08-103-19.44-134.23-39.3s-47.49-47.18-44.51-84.3Z" transform="translate(1585.83 516.46)"/><path class="cls-5" d="M1527.61-338.73l-9.34,4.78c-45.82,23.36-253.46,128.33-473,224.55S594.18,74.26,500.8,62.61c-15-1.87-26.38-6.28-33.61-13.58s-10.31-17.49-8.63-31c2.17-17.44,12.3-40.39,31.71-69.63,31.28-47.28,47.88-86.9,52-120,5.66-45.35-12.12-78.51-47.57-102.29s-88.54-38.25-153.6-46.35C60.55-355.22-442.78-271.9-712.64-305.52c-57.55-7.16-104.48-19.65-136.34-39.71s-48.66-47.65-46.08-85.15l-.46,0c-2.6,37.66,14.33,65.45,46.3,85.57s78.93,32.61,136.52,39.78c270,33.62,773.31-49.7,1053.75-14.77,65,8.1,118.06,22.56,153.39,46.28s53,56.66,47.38,101.85c-4.12,33-20.68,72.58-51.93,119.82C470.45-22.6,460.3.39,458.11,18c-1.7,13.63,1.42,24,8.75,31.41s18.85,11.83,33.89,13.71c99.89,12.42,356.58-87.94,588.4-191.39s438.67-210,438.67-210Z" transform="translate(1585.83 516.46)"/><path class="cls-5" d="M1511.79-336.33l-9.29,4.77c-45.54,23.3-251.93,128-470.14,223.92S584.09,75.54,491.39,64c-14.86-1.85-26.16-6.24-33.32-13.49s-10.22-17.38-8.55-30.84c2.15-17.23,12.09-39.89,31.14-68.73,30.81-47,47.21-86.45,51.33-119.51,5.73-45.93-12.31-79.49-48.22-103.55S394.09-310.83,328.24-319C47.59-354-452.61-272.32-723.32-306c-58.31-7.26-106-19.88-138.46-40.14s-49.84-48.12-47.66-86l-.46,0c-2.21,38,15.28,66.1,47.88,86.41s80.3,32.94,138.64,40.21c270.84,33.73,771-47.94,1051.57-13,65.81,8.19,119.52,22.81,155.32,46.81s53.71,57.33,48,103.12c-4.1,32.95-20.46,72.35-51.26,119.3-19.06,28.87-29,51.58-31.21,68.94-1.69,13.54,1.4,23.85,8.68,31.21s18.68,11.77,33.59,13.62C590.51,76.77,845.59-23.33,1076-126.5s436-209.42,436-209.42Z" transform="translate(1585.83 516.46)"/><path class="cls-5" d="M1496-333.93s-3.19,1.66-9.22,4.76c-45.22,23.24-250.17,127.67-466.89,223.41S574.6,77,482.41,65.51c-14.8-1.84-26.07-6.23-33.2-13.48S439,34.64,440.7,21.16c2.12-17,11.82-39.36,30.35-67.7,30.61-46.85,46.92-86.23,51-119.26,5.78-46.33-12.48-80.16-48.79-104.41s-90.67-39-157.19-47.28c-280.62-34.95-777.92,44.89-1049.72,11-59.17-7.37-107.64-20.13-140.84-40.61s-51.15-48.62-49.36-86.89l-.46,0c-1.81,38.43,16.27,66.78,49.58,87.31s81.82,33.29,141,40.66C-461.76-272.14,35.54-352,316-317c66.49,8.28,120.79,23,157,47.2s54.34,57.79,48.59,104c-4.1,32.93-20.37,72.25-51,119.06C452.11-18.42,442.38,4,440.25,21.11c-1.7,13.56,1.38,23.88,8.63,31.24S467.49,64.12,482.36,66c98.62,12.26,352-87.62,580.82-190.55s433-208.93,433-208.94Z" transform="translate(1585.83 516.46)"/><path class="cls-5" d="M1480.14-331.52l-9.16,4.74C1426.05-303.6,1222.4-199.46,1007.08-104S564.69,78.35,473.13,66.93c-14.7-1.83-25.89-6.19-33-13.42s-10.1-17.32-8.44-30.74c2.1-16.83,11.59-38.86,29.71-66.77,30.24-46.61,46.38-85.85,50.49-118.83,5.84-46.86-12.66-81-49.43-105.56s-91.78-39.39-159.06-47.77C22.78-351.11-471.45-273-744.12-306.94c-60-7.47-109.2-20.36-143.08-41s-52.38-49.12-51-87.78h-.46c-1.4,38.82,17.25,67.45,51.22,88.18s83.27,33.63,143.26,41.11c272.79,34,767-44.17,1047.55-9.22,67.25,8.37,122.2,23.25,158.86,47.69s55,58.42,49.23,105.12C507.37-130,491.26-90.83,461-44.25c-18.13,28-27.66,50-29.77,67-1.69,13.51,1.36,23.79,8.56,31.12s18.48,11.72,33.24,13.56c98,12.18,349.71-87.46,577.06-190.12s430.22-208.38,430.22-208.38Z" transform="translate(1585.83 516.46)"/><path class="cls-5" d="M1464.31-329.12s-3.14,1.65-9.1,4.73c-44.64,23.12-247,127-460.91,222.22S554.78,79.69,463.84,68.35c-14.6-1.82-25.71-6.16-32.74-13.36s-10-17.25-8.36-30.63C424.81,7.74,434.11-14,451.82-41.46c29.86-46.37,45.83-85.47,49.93-118.39,5.91-47.39-12.84-82-50.07-106.72s-92.9-39.79-160.95-48.27c-280.65-35-771.82,41.5-1045.32,7.43C-815.36-315-865.37-328-899.92-348.89s-53.63-49.61-52.66-88.66H-953c-1,39.22,18.24,68.12,52.88,89.06s84.71,34,145.51,41.55C-481-272.87,10.13-349.33,290.67-314.38c68,8.47,123.64,23.49,160.76,48.19s55.74,59,49.86,106.29c-4.08,32.81-20,71.86-49.86,118.19-17.73,27.52-27.06,49.28-29.15,66-1.68,13.46,1.35,23.7,8.49,31s18.36,11.67,33,13.49c97.3,12.1,347.4-87.29,573.29-189.68s427.45-207.83,427.45-207.83Z" transform="translate(1585.83 516.46)"/><path class="cls-5" d="M1448.49-326.72s-3.13,1.65-9,4.72c-44.36,23.06-245.39,126.63-457.93,221.63S544.86,81,454.55,69.76C440.05,68,429,63.63,422,56.47s-10-17.18-8.29-30.51c2-16.42,11.15-37.83,28.45-64.89C471.69-85,487.49-124,491.59-156.86c6-47.94-13-82.88-50.72-107.9S346.82-304.95,278-313.53c-280.64-35-768.74,39.83-1043,5.66-61.57-7.66-112.36-20.83-147.59-41.93s-54.9-50.1-54.34-89.54h-.46c-.57,39.61,19.24,68.8,54.56,90s86.17,34.32,147.78,42c274.4,34.18,762.49-40.61,1043-5.66,68.79,8.57,125.09,23.74,162.67,48.7s56.46,59.66,50.52,107.45c-4.08,32.76-19.85,71.66-49.32,117.75-17.32,27.09-26.46,48.54-28.52,65.08-1.67,13.41,1.33,23.61,8.42,30.88s18.22,11.61,32.78,13.43C551.13,82.23,799.6-16.91,1024-119S1448.7-326.31,1448.7-326.31Z" transform="translate(1585.83 516.46)"/><path class="cls-5" d="M1432.67-324.31l-9,4.7c-44.07,23-243.79,126.29-454.95,221S534.94,82.37,445.25,71.18C430.85,69.38,419.9,65.08,413,58s-9.86-17.11-8.21-30.38c2-16.22,10.92-37.32,27.83-64,29.11-45.86,44.74-84.68,48.83-117.47,6.05-48.5-13.21-83.81-51.38-109.09s-95.19-40.61-164.8-49.28C-15.37-347.18-500.39-274-775.43-308.32c-62.39-7.77-114-21.06-149.88-42.37s-56.17-50.6-56-90.45h-.47c-.14,40,20.26,69.49,56.27,90.84s87.63,34.67,150,42.44c275.16,34.27,760.17-38.85,1040.67-3.91,69.57,8.66,126.56,24,164.61,49.2S487-202.26,481-153.92c-4.07,32.69-19.67,71.45-48.76,117.29C415.28-10,406.33,11.18,404.3,27.51c-1.67,13.36,1.31,23.52,8.34,30.76s18.1,11.56,32.55,13.36c96,11.94,342.81-87,565.77-188.82s421.92-206.71,421.92-206.72Z" transform="translate(1585.83 516.46)"/><path class="cls-5" d="M1416.84-321.91s-3.08,1.63-8.92,4.69c-43.78,22.93-242.2,125.94-452,220.44S525,83.7,435.94,72.59c-14.29-1.78-25.16-6.06-32-13.16s-9.79-17-8.15-30.26c2-16,10.71-36.81,27.22-63,28.74-45.62,44.2-84.28,48.28-117,6.12-49-13.4-84.74-52-110.29s-96.36-41-166.77-49.79C-28.11-345.88-510-274.41-785.8-308.76c-63.2-7.87-115.57-21.3-152.18-42.83s-57.46-51.09-57.75-91.34h-.46c.28,40.42,21.27,70.17,58,91.74s89.12,35,152.35,42.89c275.88,34.35,757.8-37.12,1038.25-2.18,70.36,8.76,128,24.23,166.56,49.71s57.92,60.95,51.84,109.86c-4.06,32.62-19.49,71.23-48.21,116.82C406.06-7.86,397.31,13,395.3,29.11c-1.66,13.31,1.29,23.42,8.27,30.64s18,11.51,32.31,13.29c95.31,11.85,340.52-86.79,562-188.39S1417.06-321.5,1417.06-321.5Z" transform="translate(1585.83 516.46)"/><path class="cls-5" d="M1401-319.51s-3.07,1.63-8.87,4.68C1348.66-292,1151.54-189.23,943.15-95S515.07,85,426.63,74c-14.19-1.77-25-6-31.8-13.1s-9.72-17-8.08-30.13c2-15.81,10.49-36.3,26.61-62.08,28.37-45.36,43.65-83.88,47.72-116.53,6.19-49.62-13.6-85.7-52.71-111.51s-97.55-41.44-168.75-50.31c-280.48-34.93-759.32,34.9-1035.76.47-64-8-117.19-21.55-154.49-43.28s-58.76-51.6-59.48-92.25h-.46c.71,40.83,22.3,70.87,59.7,92.65s90.61,35.35,154.67,43.33c276.56,34.45,755.39-35.39,1035.76-.46,71.17,8.86,129.54,24.48,168.55,50.23s58.67,61.6,52.51,111.07c-4.05,32.56-19.31,71-47.65,116.35-16.14,25.81-24.7,46.34-26.68,62.26C384.64,44,387.56,54,394.49,61.22s17.83,11.46,32.08,13.24c94.65,11.76,338.23-86.64,558.26-188s416.4-205.6,416.41-205.6Z" transform="translate(1585.83 516.46)"/><path class="cls-5" d="M1385.2-317.1l-8.81,4.66c-43.21,22.8-239,125.25-446,219.25s-425.23,179.56-513,168.6c-14.09-1.76-24.8-6-31.57-13s-9.63-16.9-8-30c1.94-15.6,10.28-35.79,26-61.14,28-45.11,43.1-83.47,47.16-116,6.26-50.19-13.79-86.66-53.4-112.74s-98.73-41.86-170.75-50.83c-280.39-34.92-756.12,33.29-1033.21-1.23-64.85-8.08-118.81-21.78-156.82-43.73s-60.07-52.11-61.22-93.17h-.46c1.14,41.24,23.34,71.57,61.45,93.56s92.11,35.71,157,43.79c277.2,34.52,752.93-33.69,1033.22,1.22,72,9,131,24.74,170.55,50.76s59.42,62.26,53.19,112.31c-4,32.48-19.13,70.79-47.09,115.86C387.61-3.63,379.24,16.6,377.28,32.31c-1.65,13.2,1.25,23.24,8.13,30.39s17.7,11.4,31.84,13.17c94,11.68,335.94-86.47,554.51-187.53s413.65-205,413.65-205Z" transform="translate(1585.83 516.46)"/><path class="cls-5" d="M1369.37-314.7l-8.75,4.65c-42.92,22.74-237.44,124.9-443.06,218.65S495.18,87.7,408,76.82c-14-1.74-24.61-6-31.33-13S367.09,47,368.72,34c1.91-15.4,10.06-35.27,25.41-60.2,27.61-44.85,42.56-83,46.61-115.55,6.33-50.79-14-87.64-54.09-114s-99.95-42.29-172.78-51.36C-66.41-342-539-275.44-816.72-310c-65.68-8.18-120.45-22-159.18-44.18s-61.38-52.62-63-94.09h-.46c1.58,41.65,24.39,72.27,63.21,94.48s93.63,36.05,159.34,44.24c277.8,34.6,750.42-32,1030.6,2.9,72.79,9.06,132.59,25,172.57,51.28s60.19,62.93,53.89,113.56c-4,32.41-18.95,70.55-46.54,115.37-15.37,25-23.55,44.88-25.48,60.38-1.64,13.15,1.23,23.14,8.06,30.26s17.56,11.35,31.61,13.1C501.24,88.88,741.57-9,958.69-109.81s410.9-204.48,410.9-204.49Z" transform="translate(1585.83 516.46)"/><path class="cls-5" d="M1353.55-312.3s-3,1.62-8.69,4.64C1302.22-285,1109-183.11,904.75-89.6S485.22,89,398.65,78.23c-13.88-1.73-24.43-5.92-31.09-12.9s-9.48-16.75-7.87-29.76c1.89-15.19,9.86-34.76,24.83-59.26,27.23-44.59,42-82.63,46-115C437-190.11,416.37-227.37,375.78-254S274.61-296.72,201-305.89C-79.2-340.78-548.7-275.78-827-310.44c-66.52-8.29-122.1-22.27-161.54-44.65s-62.72-53.13-64.75-95l-.46,0c2,42.06,25.46,73,65,95.39S-893.57-318.28-827-310c278.37,34.67,747.87-30.33,1027.91,4.55,73.63,9.17,134.15,25.25,174.63,51.82s61,63.6,54.59,114.82c-4,32.33-18.77,70.32-46,114.87-15,24.53-23,44.15-24.88,59.44-1.64,13.1,1.21,23.05,8,30.14s17.43,11.3,31.36,13C491.24,90.2,730-7.45,945.61-108s408.15-203.92,408.16-203.92Z" transform="translate(1585.83 516.46)"/><path class="cls-5" d="M1337.72-309.9s-3,1.61-8.63,4.63C1286.74-282.66,1094.81-181.07,892-87.81S475.26,90.36,389.31,79.63c-13.77-1.71-24.24-5.88-30.85-12.83s-9.41-16.67-7.8-29.63c1.87-15,9.65-34.24,24.24-58.32,26.86-44.32,41.46-82.2,45.49-114.54,6.48-52-14.4-89.63-55.5-116.54S262.48-295.38,188-304.66c-280-34.87-746.37,28.54-1025.16-6.18-67.36-8.39-123.76-22.51-163.92-45.11s-64.06-53.64-66.55-95.95l-.46,0c2.49,42.48,26.54,73.68,66.78,96.32s96.7,36.77,164.09,45.16C-558.34-275.65-92-339.07,187.94-304.2c74.45,9.27,135.71,25.5,176.7,52.36s61.73,64.28,55.29,116.09c-4,32.25-18.59,70.07-45.42,114.36C359.9,2.72,352.09,22,350.21,37.12c-1.63,13,1.19,23,7.91,30s17.3,11.25,31.14,13c92,11.43,329.06-86,543.27-186.22s405.41-203.36,405.41-203.36Z" transform="translate(1585.83 516.46)"/><path class="cls-5" d="M1321.9-307.49l-8.57,4.61C1271.26-280.33,1080.62-179,879.14-86S465.29,91.69,380,81c-13.67-1.7-24.06-5.85-30.62-12.76s-9.32-16.6-7.72-29.5c1.84-14.78,9.44-33.73,23.66-57.39,26.48-44,40.9-81.76,44.92-114,6.56-52.57-14.6-90.64-56.21-117.83s-103.66-43.59-179-53c-279.82-34.85-743.07,27-1022.35-7.79-68.2-8.5-125.43-22.76-166.31-45.57S-1079.08-411-1082-453.69l-.46,0c2.94,42.9,27.62,74.4,68.59,97.26s98.25,37.12,166.48,45.62C-568-276-104.78-337.82,175-303c75.3,9.38,137.29,25.77,178.79,52.9s62.53,65,56,117.4c-4,32.16-18.4,69.82-44.86,113.83C350.66,4.84,343,23.84,341.17,38.72c-1.62,13,1.18,22.85,7.85,29.88s17.16,11.19,30.89,12.9C471.23,92.85,706.69-4.31,919.44-104.29s402.68-202.8,402.68-202.8Z" transform="translate(1585.83 516.46)"/><path class="cls-5" d="M1306.08-305.09l-8.52,4.6C1255.78-278,1066.43-177,866.32-84.23S455.31,93,370.62,82.44c-13.57-1.69-23.87-5.81-30.38-12.69S331,53.23,332.59,40.38c1.82-14.56,9.23-33.22,23.09-56.45C381.77-59.85,396-97.39,400-129.55c6.64-53.19-14.81-91.67-56.94-119.15s-104.92-44-181.11-53.53C-117.66-337-577.76-276.77-857.49-311.62c-69.06-8.6-127.11-23-168.73-46s-66.79-54.68-70.18-97.84l-.46,0c3.4,43.33,28.72,75.12,70.42,98.2s99.81,37.49,168.89,46.09c279.83,34.85,739.94-25.43,1019.47,9.39,76.16,9.49,138.9,26,180.92,53.45s63.33,65.67,56.73,118.71c-4,32.07-18.21,69.56-44.29,113.3C341.41,7,334,25.65,332.13,40.32c-1.61,12.94,1.16,22.76,7.78,29.75s17,11.13,30.65,12.83c90.65,11.27,324.5-85.64,535.8-185.35s399.93-202.23,399.94-202.24Z" transform="translate(1585.83 516.46)"/><path class="cls-5" d="M1290.25-302.69s-2.92,1.6-8.46,4.59C1240.3-275.68,1052.24-174.94,853.5-82.44S445.32,94.34,361.26,83.85c-13.46-1.68-23.69-5.78-30.14-12.63S322,54.78,323.55,42c1.78-14.35,9-32.7,22.51-55.52,25.72-43.5,39.8-80.86,43.79-112.93,6.71-53.81-15-92.71-57.68-120.48S226-291.43,148.92-301c-279.42-34.8-736.38,23.94-1016.52-11-69.91-8.71-128.8-23.24-171.16-46.5s-68.16-55.21-72-98.79l-.46,0c3.86,43.76,29.82,75.85,72.26,99.15s101.38,37.85,171.32,46.56c280.24,34.9,737.2-23.83,1016.52,11,77,9.59,140.52,26.3,183.06,54s64.15,66.37,57.47,120c-4,32-18,69.3-43.73,112.76-13.5,22.85-20.77,41.24-22.57,55.7-1.61,12.87,1.14,22.65,7.7,29.61s16.89,11.08,30.41,12.77c90,11.18,322.21-85.48,532.07-184.91s397.2-201.68,397.2-201.68Z" transform="translate(1585.83 516.46)"/><path class="cls-5" d="M1274.43-300.28l-8.4,4.57c-41.22,22.36-228,122.81-425.35,215.06S435.33,95.66,351.9,85.25c-13.36-1.66-23.5-5.74-29.9-12.55s-9.09-16.38-7.51-29.11c1.76-14.15,8.82-32.19,22-54.59,25.33-43.22,39.23-80.4,43.22-112.38,6.79-54.44-15.24-93.76-58.42-121.82s-107.51-44.93-185.43-54.64c-279.18-34.77-733,22.43-1013.5-12.51-70.77-8.82-130.5-23.5-173.6-47s-69.56-55.73-73.88-99.74l-.46,0c4.33,44.19,30.94,76.59,74.12,100.11s103,38.2,173.76,47c280.62,34.95,734.42-22.25,1013.5,12.52,77.89,9.7,142.16,26.57,185.23,54.57s65,67.09,58.22,121.38c-4,31.88-17.84,69-43.16,112.2C322.9,11.2,315.81,29.28,314,43.53c-1.6,12.82,1.12,22.56,7.62,29.48s16.76,11,30.18,12.7C441.15,96.81,671.77.4,880.17-98.76s394.48-201.12,394.48-201.12Z" transform="translate(1585.83 516.46)"/><path class="cls-5" d="M1258.6-297.88s-2.88,1.59-8.34,4.56C1209.33-271,1023.84-170.86,827.86-78.86S425.34,97,342.53,86.65C329.27,85,319.22,81,312.87,74.17s-9-16.3-7.43-29c1.73-13.93,8.62-31.67,21.39-53.65,25-42.93,38.68-79.94,42.65-111.81,6.87-55.09-15.45-94.83-59.17-123.19s-108.83-45.39-187.63-55.2c-278.92-34.74-729.55,20.93-1010.4-14-71.63-8.92-132.21-23.74-176.06-47.45s-71-56.26-75.76-100.71l-.46.05c4.81,44.62,32.06,77.33,76,101.07s104.56,38.57,176.22,47.5c280.95,35,731.58-20.69,1010.4,14,78.77,9.81,143.82,26.84,187.44,55.14s65.8,67.81,59,122.74c-4,31.79-17.66,68.74-42.59,111.64-12.8,22-19.71,39.79-21.46,53.83-1.59,12.76,1.1,22.45,7.55,29.34s16.63,11,29.94,12.63c88.64,11,317.64-85.14,524.6-184s391.75-200.56,391.76-200.56Z" transform="translate(1585.83 516.46)"/><path class="cls-5" d="M1242.78-295.48s-2.87,1.59-8.28,4.55C1193.85-268.7,1009.65-168.82,815-77.07S415.33,98.31,333.15,88.06C320,86.42,310,82.38,303.74,75.64s-8.94-16.22-7.37-28.84c1.71-13.73,8.42-31.16,20.85-52.72,24.57-42.65,38.12-79.46,42.07-111.23,7-55.74-15.67-95.92-59.94-124.57S189.2-287.57,109.51-297.5C-169.13-332.2-616.59-278-897.73-313.06c-72.5-9-133.93-24-178.54-47.92s-72.38-56.79-77.66-101.68l-.46.05c5.3,45.06,33.21,78.07,77.9,102s106.17,38.94,178.7,48c281.24,35,728.7-19.14,1007.24,15.56,79.66,9.92,145.5,27.11,189.65,55.71s66.65,68.54,59.74,124.12c-3.95,31.68-17.47,68.45-42,111.06-12.44,21.6-19.18,39.07-20.91,52.89C294.33,59.45,297,69.09,303.4,76s16.49,10.92,29.69,12.56c88,10.94,315.37-85,520.88-183.59s389-200,389-200Z" transform="translate(1585.83 516.46)"/><path class="cls-5" d="M1227-293.08l-8.23,4.54C1178.36-266.37,995.45-166.78,802.2-75.28S405.32,99.64,323.77,89.46c-13-1.63-22.94-5.64-29.17-12.35s-8.86-16.14-7.3-28.7c1.69-13.52,8.23-30.64,20.31-51.79,24.19-42.36,37.55-79,41.5-110.64,7-56.4-15.9-97-60.72-126S176.89-286.31,96.3-296.35c-278.34-34.66-722.62,18-1004-17-73.37-9.14-135.66-24.25-181-48.4s-73.81-57.33-79.57-102.67l-.46.06c5.78,45.51,34.36,78.82,79.81,103s107.79,39.3,181.2,48.44c281.48,35.06,725.76-17.61,1004,17.05,80.56,10,147.19,27.39,191.9,56.29s67.5,69.28,60.51,125.52C344.72-82.5,331.38-45.93,307.2-3.61c-12.09,21.18-18.66,38.35-20.35,52-1.58,12.65,1.06,22.25,7.41,29.07s16.35,10.86,29.45,12.5C411,100.77,636.8,5.11,840.87-93.24s386.31-199.43,386.31-199.43Z" transform="translate(1585.83 516.46)"/><path class="cls-5" d="M1211.13-290.67l-8.17,4.52C1162.88-264,981.24-164.74,789.36-73.49s-394,174.45-475,164.35c-12.94-1.61-22.75-5.6-28.93-12.28S276.67,62.52,278.23,50c1.66-13.31,8-30.13,19.76-50.86,23.81-42.06,37-78.49,40.92-110,7.12-57.07-16.12-98.14-61.5-127.39S164.55-285,83-295.21C-195-329.83-636-278.64-917.64-313.72-991.9-323-1055-338.22-1101.19-362.6s-75.25-57.87-81.5-103.65l-.46.06c6.27,45.95,35.52,79.58,81.74,104S-992-322.52-917.7-313.26C-636-278.18-194.93-329.37,83-294.75c81.46,10.15,148.91,27.67,194.17,56.87s68.38,70,61.3,127c-3.92,31.46-17.08,67.84-40.87,109.86-11.75,20.77-18.15,37.63-19.82,51-1.57,12.59,1.05,22.14,7.34,28.94s16.22,10.8,29.21,12.42C401,102.09,625.13,6.68,827.76-91.4s383.6-198.87,383.6-198.87Z" transform="translate(1585.83 516.46)"/><path class="cls-5" d="M1195.31-288.27l-8.11,4.51C1147.4-261.72,967-162.7,776.52-71.7s-391.24,174-471.54,164c-12.82-1.6-22.55-5.56-28.68-12.21s-8.7-16-7.15-28.43C270.78,38.53,277,22,288.38,1.7c23.42-41.76,36.43-78,40.34-109.42,7.2-57.74-16.35-99.26-62.29-128.83S152.18-283.81,69.75-294.08c-277.65-34.58-715.54,15.14-997.3-20-75.14-9.36-139.16-24.75-186.08-49.36s-76.69-58.42-83.44-104.64l-.46.06c6.77,46.4,36.7,80.34,83.69,105s111.07,40,186.23,49.4c281.86,35.11,719.74-14.61,997.31,20,82.39,10.26,150.64,27.95,196.48,57.46s69.25,70.79,62.08,128.39C324.36-76.43,311.38-40.25,288,1.47c-11.42,20.35-17.64,36.91-19.29,50.1-1.56,12.53,1,22,7.27,28.8s16.08,10.74,29,12.35c86,10.68,308.53-84.48,509.72-182.29s380.88-198.3,380.88-198.3Z" transform="translate(1585.83 516.46)"/><path class="cls-5" d="M1179.49-285.87s-2.79,1.57-8.06,4.5c-39.52,22-218.6,120.71-407.75,211.46S375.25,103.61,295.58,93.66c-12.72-1.58-22.37-5.53-28.44-12.13s-8.62-15.9-7.08-28.3c1.61-12.88,7.64-29.09,18.7-49,23-41.45,35.86-77.48,39.76-108.79,7.29-58.43-16.58-100.4-63.1-130.28S139.77-282.58,56.42-293c-277.28-34.53-711.95,13.73-993.84-21.38-76-9.47-140.93-25-188.62-49.85s-78.17-59-85.42-105.64l-.45.07c7.27,46.86,37.88,81.11,85.65,106s112.73,40.42,188.78,49.89c282,35.12,716.65-13.14,993.84,21.39,83.32,10.38,152.41,28.24,198.81,58.06s70.15,71.57,62.9,129.85C314.18-73.38,301.38-37.4,278.36,4,267.28,24,261.22,40.2,259.61,53.18c-1.56,12.47,1,21.93,7.19,28.66s15.94,10.69,28.72,12.28c42.67,5.31,119.21-15.78,210.09-50.37C778.22-60,1179.71-285.46,1179.71-285.47Z" transform="translate(1585.83 516.46)"/><path class="cls-5" d="M1163.66-283.46l-8,4.48c-39.23,21.91-217,120.36-404.83,210.86S365.22,104.93,286.17,95.06C273.56,93.49,264,89.57,258,83s-8.53-15.82-7-28.16c1.58-12.66,7.44-28.57,18.18-48.06,22.65-41.14,35.29-77,39.17-108.14,7.38-59.14-16.82-101.57-63.91-131.77S127.34-281.36,43.05-291.86c-276.88-34.49-708.34,12.33-990.31-22.8-76.92-9.57-142.7-25.25-191.18-50.32s-79.64-59.51-87.4-106.65l-.45.08c7.78,47.31,39.08,81.87,87.63,107s114.4,40.79,191.34,50.37C-665.26-279.07-233.8-325.89,43-291.41c84.26,10.5,154.18,28.53,201.17,58.67s71,72.34,63.71,131.32c-3.88,31.1-16.5,66.87-39.13,108C258,26.08,252.1,42,250.51,54.79c-1.55,12.41,1,21.83,7.12,28.52s15.81,10.63,28.49,12.21c42.33,5.26,118.3-15.78,208.51-50.29,270.62-103.52,669.25-328.29,669.26-328.29Z" transform="translate(1585.83 516.46)"/><path class="cls-5" d="M1147.84-281.06l-7.94,4.47c-39,21.84-215.49,120-401.92,210.26S355.17,106.25,276.76,96.46c-12.51-1.56-22-5.45-28-12s-8.45-15.74-6.93-28C243.42,44,249.13,28.4,259.53,9.31c22.27-40.82,34.72-76.42,38.59-107.47,7.47-59.85-17.06-102.75-64.74-133.27S114.87-280.16,29.63-290.78c-276.46-34.43-704.68,11-986.7-24.17-77.81-9.69-144.48-25.51-193.76-50.81s-81.12-60.06-89.39-107.66l-.45.08c8.29,47.77,40.28,82.65,89.63,108s116.08,41.16,193.92,50.86c282.1,35.14,710.33-10.25,986.69,24.17,85.21,10.61,156,28.82,203.56,59.28s72,73.13,64.53,132.83c-3.85,31-16.29,66.51-38.53,107.3C248.7,28.21,243,43.85,241.41,56.4c-1.54,12.36,1,21.72,7.05,28.38s15.67,10.57,28.24,12.14c42,5.22,117.4-15.78,207-50.2,268.63-103.26,664.41-327.38,664.42-327.38Z" transform="translate(1585.83 516.46)"/><path class="cls-5" d="M1132-278.66s-2.72,1.55-7.88,4.46c-38.67,21.78-213.93,119.66-399,209.66s-380,172.11-457.78,162.4c-12.4-1.54-21.8-5.41-27.71-11.92s-8.38-15.65-6.86-27.87,7.06-27.54,17.15-46.22c21.87-40.5,34.15-75.88,38-106.79,7.55-60.57-17.31-103.95-65.59-134.79s-120-49.23-206.16-60c-276-34.37-701,9.6-983-25.53-78.71-9.81-146.28-25.77-196.35-51.31s-82.63-60.61-91.41-108.68l-.46.09c8.82,48.23,41.51,83.43,91.66,109s117.77,41.55,196.51,51.36c282.1,35.13,707.08-8.84,983,25.53,86.18,10.73,157.81,29.11,206,59.9S295-155.41,287.46-95c-3.84,30.83-16.09,66.17-37.94,106.64-10.11,18.7-15.67,34-17.21,46.37s.95,21.62,7,28.24,15.53,10.52,28,12.07C309,103.5,383.78,82.54,472.67,48.21c266.64-103,659.57-326.46,659.57-326.47Z" transform="translate(1585.83 516.46)"/><path class="cls-5" d="M1116.19-276.26l-7.83,4.45C1070-250.09,896-152.5,712.27-62.75s-377.2,171.65-454.36,162c-12.29-1.53-21.61-5.38-27.47-11.85s-8.29-15.57-6.78-27.73,6.88-27,16.65-45.29c21.48-40.17,33.57-75.33,37.4-106.1C285.35-153,260.16-196.87,211.28-228S89.85-277.78,2.67-288.64c-275.54-34.31-697.27,8.26-979.24-26.87-79.62-9.91-148.09-26-199-51.79S-1259.68-428.48-1269-477l-.46.09c9.34,48.7,42.75,84.22,93.7,110S-1056.28-325-976.63-315c282.06,35.13,703.79-7.44,979.24,26.87C89.76-277.33,162.25-258.77,211-227.66s73.83,74.75,66.22,135.9C273.43-61.07,261.36-26,239.9,14.18c-9.78,18.3-15.19,33.33-16.7,45.45s.94,21.51,6.9,28.09,15.4,10.46,27.75,12c41.34,5.14,115.6-15.78,203.83-50C726.33-53,1116.41-275.85,1116.42-275.86Z" transform="translate(1585.83 516.46)"/><path class="cls-5" d="M1100.37-273.85l-7.78,4.43C1054.48-247.77,881.76-150.46,699.4-61S325,110.22,248.48,100.66c-12.19-1.51-21.42-5.34-27.23-11.77S213,73.39,214.54,61.3c1.47-11.81,6.69-26.5,16.15-44.37,21.09-39.84,33-74.77,36.81-105.39,7.74-62-17.8-106.4-67.3-137.9S77.28-276.6-10.89-287.59c-275-34.25-693.5,6.93-975.38-28.18-80.53-10-149.91-26.29-201.59-52.29s-85.67-61.74-95.51-110.74l-.45.09c9.87,49.17,44,85,95.75,111.06s121.18,42.3,201.74,52.34c282,35.11,700.44-6.07,975.39,28.18C77.19-276.15,150.57-257.42,200-226S274.74-150.41,267-88.51C263.23-58,251.36-23.09,230.28,16.72c-9.47,17.89-14.72,32.62-16.2,44.52-1.52,12.18.92,21.41,6.83,28s15.26,10.4,27.51,11.92c41,5.1,114.69-15.78,202.26-49.94C713.35-51.31,1100.59-273.45,1100.6-273.45Z" transform="translate(1585.83 516.46)"/><path class="cls-5" d="M1084.54-271.45l-7.71,4.42C1039-245.44,867.54-148.43,686.54-59.18S314.94,111.54,239,102.06c-12.08-1.5-21.23-5.3-27-11.7S203.92,75,205.42,62.92c1.44-11.6,6.51-26,15.66-43.45,20.69-39.5,32.41-74.19,36.2-104.66,7.84-62.81-18-107.66-68.17-139.5S64.68-275.44-24.48-286.55C-299-320.74-714.18-280.93-995.94-316c-81.44-10.14-151.73-26.55-204.23-52.79s-87.21-62.3-97.58-111.78l-.45.1c10.4,49.65,45.25,85.82,97.82,112.1s122.91,42.68,204.38,52.83c281.84,35.1,697-4.71,971.46,29.48,89.13,11.1,163.4,30,213.41,61.79s75.75,76.4,67.95,139.06c-3.78,30.39-15.47,65-36.15,104.5-9.16,17.49-14.25,31.92-15.71,43.6-1.51,12.11.9,21.29,6.76,27.81S226.84,101,239,102.52c40.66,5.06,113.79-15.78,200.7-49.85C700.36-49.56,1084.77-271,1084.77-271Z" transform="translate(1585.83 516.46)"/><path class="cls-5" d="M1068.72-269s-2.65,1.54-7.66,4.41c-37.55,21.53-207.74,118.26-387.39,207.25S304.87,112.86,229.59,103.47c-12-1.5-21-5.27-26.73-11.63s-8.06-15.33-6.57-27.3c1.42-11.39,6.33-25.47,15.17-42.53,20.31-39.16,31.83-73.6,35.6-103.91C255-145.49,228.75-190.83,178-223S52-274.3-38.12-285.53c-273.95-34.12-685.87,4.33-967.45-30.75-82.36-10.25-153.56-26.8-206.89-53.28s-88.76-62.87-99.67-112.83l-.45.1c10.94,50.13,46.51,86.63,99.91,113.14s124.66,43.07,207,53.33C-724-280.74-312-319.19-38.18-285.07,52-273.85,127.13-254.75,177.76-222.63S254.5-145.39,246.61-82c-3.77,30.24-15.27,64.63-35.56,103.76C202.19,38.89,197.26,53,195.83,64.48c-1.5,12,.88,21.18,6.69,27.66s15,10.28,27,11.78c40.33,5,112.9-15.78,199.14-49.76,258.7-102,640.27-322.8,640.28-322.81Z" transform="translate(1585.83 516.46)"/><path class="cls-5" d="M1052.9-266.64s-2.63,1.53-7.6,4.39C1008-240.79,839.1-144.35,660.8-55.6s-366,169.79-440.66,160.47c-11.87-1.48-20.85-5.23-26.49-11.56s-8-15.24-6.5-27.16c1.4-11.16,6.16-25,14.7-41.6,19.91-38.81,31.24-73,35-103.14,8-64.37-18.57-110.23-70-142.76S39.37-273.16-51.81-284.52c-273.37-34.05-682,3-963.36-32-166.58-20.75-288.46-66.8-311.34-167.67l-.45.1c23,101.24,145.14,147.27,311.74,168,281.44,35.06,690.06-2,963.35,32,91.15,11.35,167.25,30.62,218.52,63.1s77.72,78.1,69.74,142.31c-3.75,30.07-15.06,64.22-34.95,103C192.88,41,188.1,54.85,186.7,66.1c-1.5,12,.86,21.07,6.61,27.52s14.85,10.22,26.77,11.7c40,5,112-15.78,197.58-49.68,256.72-101.71,635.46-321.88,635.47-321.88Z" transform="translate(1585.83 516.46)"/><path class="cls-5" d="M1037.07-264.24l-7.54,4.38c-37,21.4-204.66,117.55-381.61,206.05S284.7,115.51,210.68,106.27c-11.76-1.47-20.66-5.19-26.24-11.48s-7.9-15.16-6.43-27c1.37-11,6-24.44,14.23-40.69,19.5-38.45,30.64-72.39,34.38-102.36,8.12-65.17-18.84-111.55-70.86-144.43S26.66-272-65.55-283.53c-272.77-34-678.08,1.8-959.18-33.21-168.44-21-292.18-67.38-316.17-169.24l-.44.11c24.11,102.22,148.1,148.6,316.56,169.59,281.17,35,686.49-.75,959.17,33.21,92.18,11.48,169.21,30.94,221.12,63.76s78.74,79,70.65,144c-3.72,29.9-14.84,63.8-34.34,102.21-8.26,16.29-12.89,29.81-14.26,40.84-1.49,11.93.84,21,6.53,27.37s14.71,10.16,26.53,11.64c39.66,4.93,111.1-15.78,196-49.6,254.74-101.45,630.66-321,630.66-321Z" transform="translate(1585.83 516.46)"/><path class="cls-5" d="M1021.25-261.84l-7.49,4.37C977-236.14,810.64-140.27,635.05-52S274.6,116.84,201.21,107.67c-11.65-1.45-20.46-5.15-26-11.41s-7.82-15.07-6.35-26.86c1.33-10.74,5.79-23.92,13.75-39.77,19.11-38.08,30.06-71.76,33.77-101.55,8.23-66-19.1-112.89-71.78-146.12S13.92-270.93-79.34-282.54c-272.13-33.9-674.13.56-954.91-34.42-170.3-21.21-295.93-68-321-170.81l-.45.11c25.24,103.2,151.1,149.94,321.42,171.16,280.86,35,682.86.53,954.91,34.41,93.23,11.61,171.19,31.26,223.76,64.44S224.12-137.8,215.93-72c-3.7,29.72-14.63,63.35-33.72,101.4-8,15.89-12.45,29.11-13.8,39.92-1.48,11.87.82,20.86,6.46,27.23s14.58,10.1,26.29,11.56C240.48,113,311.35,92.35,395.62,58.62c252.76-101.2,625.85-320.06,625.86-320.06Z" transform="translate(1585.83 516.46)"/><path class="cls-5" d="M1005.42-259.44s-2.57,1.52-7.43,4.36C961.55-233.81,796.41-138.23,622.16-50.23S264.5,118.16,191.74,109.07C180.2,107.64,171.47,104,166,97.74s-7.74-15-6.28-26.72C161,60.5,165.34,47.63,173,32.16c18.7-37.7,29.46-71.11,33.14-100.71,8.34-66.81-19.37-114.25-72.71-147.85S1.13-269.83-93.19-281.58c-271.46-33.81-670.12-.66-950.55-35.59-172.18-21.44-299.69-68.56-325.92-172.39l-.45.11c26.37,104.19,154.12,151.28,326.31,172.74,280.51,34.93,679.17,1.78,950.56,35.59C1-269.38,80-249.55,133.19-216S214-135.26,205.7-68.61C202-39.07,191.29-5.71,172.59,32c-7.68,15.49-12,28.41-13.34,39-1.47,11.8.81,20.74,6.4,27.07s14.43,10,26,11.49c39,4.85,109.3-15.78,192.91-49.42C635.38-40.83,1005.65-259,1005.66-259Z" transform="translate(1585.83 516.46)"/><path class="cls-5" d="M989.6-257l-7.37,4.34c-36.17,21.21-200.05,116.51-373,204.25s-354.88,167.93-427,158.92c-11.43-1.42-20.08-5.08-25.5-11.26s-7.66-14.91-6.21-26.57c1.28-10.3,5.45-22.88,12.84-37.95,18.31-37.32,28.86-70.45,32.53-99.86,8.43-67.65-19.65-115.63-73.67-149.6s-133.95-54-229.33-65.87c-270.77-33.72-666.09-1.86-946.12-36.74-174-21.67-303.48-69.15-330.84-174l-.45.12C-1357-386-1227.33-338.6-1053.26-316.91c280.11,34.88,675.43,3,946.12,36.74C-11.78-268.29,68.1-248.28,122-214.37s81.85,81.66,73.45,149.15C191.8-35.87,181.27-2.79,163,34.5c-7.41,15.1-11.59,27.72-12.89,38.09-1.46,11.74.79,20.63,6.32,26.93s14.3,10,25.8,11.42c38.65,4.8,108.4-15.78,191.34-49.34C622.38-39.08,989.83-256.63,989.83-256.63Z" transform="translate(1585.83 516.46)"/><path class="cls-5" d="M973.78-254.63l-7.32,4.33C930.57-229.16,768-134.14,596.39-46.65S244.29,120.82,172.78,111.89c-11.33-1.42-19.89-5-25.26-11.19s-7.58-14.82-6.13-26.42c1.25-10.09,5.28-22.36,12.39-37,17.9-36.93,28.26-69.77,31.9-99,8.54-68.5-19.93-117-74.63-151.37S-24.56-267.67-121-279.69c-270-33.63-662-3.05-941.59-37.87-175.94-21.91-307.29-69.74-335.81-175.59l-.44.12c28.66,106.2,160.24,154,336.2,175.93C-783-282.27-391-312.86-121.08-279.23c96.43,12,177.29,32.22,231.88,66.5s82.92,82.58,74.42,150.93C181.59-32.66,171.25.14,153.37,37c-7.13,14.7-11.18,27-12.44,37.18-1.46,11.68.77,20.52,6.25,26.78s14.15,9.93,25.54,11.34c38.33,4.77,107.5-15.78,189.8-49.25C609.37-37.34,974-254.23,974-254.23Z" transform="translate(1585.83 516.46)"/><path class="cls-5" d="M958-252.23s-2.51,1.51-7.26,4.32c-35.61,21.08-197,115.81-367.19,203.06C498.39-1.23,411.07,40.52,336.15,70.26s-137.44,47.45-172.86,43c-11.22-1.39-19.7-5-25-11.11s-7.5-14.73-6.07-26.27c1.23-9.87,5.12-21.85,12-36.13C161.66,3.25,171.82-29.3,175.43-58.3c8.65-69.38-20.21-118.48-75.6-153.19S-37.47-266.61-135-278.77c-269.29-33.54-657.89-4.21-937-39-177.84-22.15-311.12-70.34-340.81-177.2l-.44.12c29.82,107.22,163.34,155.37,341.19,177.53,279.16,34.77,667.75,5.45,937,39C-37.56-266.16,44.3-245.76,99.58-211.1s84,83.52,75.39,152.74c-3.6,28.94-13.74,61.44-31.22,97.94-6.85,14.31-10.76,26.33-12,36.27-1.45,11.62.75,20.41,6.17,26.63s14,9.87,25.3,11.27c38,4.72,106.61-15.78,188.24-49.17C596.35-35.59,958.18-251.83,958.19-251.83Z" transform="translate(1585.83 516.46)"/><path class="cls-5" d="M942.13-249.82l-7.21,4.3c-35.33,21-195.44,115.46-364.31,202.46C486.17.44,399.54,42.07,325.23,71.74s-136.33,47.34-171.44,43c-11.11-1.38-19.5-5-24.76-11S121.61,89,123,77.54c1.2-9.65,5-21.33,11.52-35.22,17.09-36.13,27-68.37,30.63-97.16,8.76-70.27-20.5-119.94-76.6-155s-139-55.7-237.67-68c-268.51-33.44-653.72-5.36-932.26-40.06-179.74-22.38-315-70.92-345.84-178.81l-.44.12c31,108.24,166.46,156.75,346.23,179.15,278.6,34.7,663.82,6.62,932.25,40.06,98.64,12.28,181.5,32.88,237.49,67.92S173.45-125,164.72-54.9c-3.58,28.73-13.52,60.93-30.58,97C127.55,56,123.79,67.76,122.58,77.48c-1.45,11.55.73,20.29,6.1,26.48s13.88,9.81,25,11.2c37.66,4.68,105.71-15.79,186.69-49.09,242.92-99.91,601.94-315.49,601.94-315.5Z" transform="translate(1585.83 516.46)"/><path class="cls-5" d="M926.3-247.42l-7.15,4.29C884.1-222.18,725.24-128,557.71-41.27,473.94,2.11,388,43.63,314.29,73.22s-135.21,47.23-170,42.89c-11-1.37-19.31-4.93-24.51-11s-7.34-14.57-5.92-26c1.17-9.42,4.78-20.81,11.09-34.31,16.67-35.71,26.43-67.64,30-96.2,8.88-71.18-20.79-121.43-77.6-156.91S-63.42-264.54-163.21-277c-267.69-33.34-649.5-6.49-927.45-41.11-181.65-22.62-318.86-71.52-350.91-180.45l-.44.13c32.19,109.28,169.62,158.14,351.3,180.78,278,34.63,659.82,7.77,927.44,41.11,99.76,12.42,183.65,33.22,240.35,68.65S163.3-122.42,154.47-51.4C150.92-22.9,141.18,9,124.52,44.66c-6.32,13.54-10,25-11.13,34.46-1.43,11.48.72,20.18,6,26.33s13.74,9.74,24.81,11.12c37.32,4.64,104.81-15.79,185.14-49C570.32-32.09,926.53-247,926.54-247Z" transform="translate(1585.83 516.46)"/><path class="cls-5" d="M910.48-245s-2.45,1.49-7.09,4.28C868.61-219.85,711-126,544.81-39.47,461.71,3.78,376.46,45.18,303.35,74.7s-134.09,47.12-168.58,42.82c-10.89-1.36-19.12-4.89-24.27-10.89s-7.26-14.47-5.85-25.82c1.15-9.21,4.62-20.29,10.67-33.41,16.27-35.29,25.82-66.89,29.34-95.22,9-72.11-21.08-123-78.62-158.82s-142.5-56.88-243.43-69.45c-266.84-33.24-645.24-7.6-922.54-42.14-183.58-22.86-322.78-72.12-356-182.09l-.45.13C-1423-389.87-1283.59-340.65-1100-317.77c277.37,34.54,655.77,8.9,922.54,42.13C-76.55-263.07,8.37-242.08,65.8-206.25s87.36,86.43,78.41,158.37C140.69-19.61,131.15,12,114.9,47.2c-6.06,13.15-9.55,24.28-10.7,33.55-1.43,11.43.7,20.07,6,26.18s13.61,9.68,24.57,11c37,4.6,103.92-15.79,183.59-48.92,239-99.4,592.4-313.68,592.41-313.68Z" transform="translate(1585.83 516.46)"/><path class="cls-5" d="M894.66-242.61l-7,4.26C853.12-217.53,696.76-123.93,531.9-37.68c-82.43,43.13-167,84.42-239.49,113.86s-133,47-167.15,42.75c-10.79-1.34-18.93-4.85-24-10.81s-7.18-14.39-5.77-25.67c1.12-9,4.46-19.78,10.25-32.52,15.85-34.84,25.19-66.11,28.69-94.2,9.11-73-21.39-124.49-79.66-160.77s-144.29-57.48-246.37-70.19c-266-33.13-640.93-8.69-917.54-43.14-185.51-23.1-326.7-72.71-361.17-183.74l-.44.13c34.62,111.37,176,161,361.55,184.07,276.68,34.46,651.65,10,917.54,43.14,102.05,12.71,188,33.9,246.19,70.12S143-117.21,133.94-44.32c-3.49,28-12.82,59.25-28.65,94.06C99.48,62.51,96.13,73.33,95,82.39c-1.42,11.36.68,20,5.88,26s13.47,9.62,24.32,11c36.66,4.56,103-15.78,182.05-48.83,237-99.14,587.64-312.78,587.65-312.78Z" transform="translate(1585.83 516.46)"/><path class="cls-5" d="M878.83-240.21s-2.41,1.48-7,4.25C837.62-215.2,682.52-121.89,519-35.88,437.23,7.12,353.37,48.3,281.46,77.66s-131.87,46.91-165.72,42.69C105.06,119,97,115.53,92,109.61S84.85,95.3,86.25,84.09c1.09-8.77,4.3-19.26,9.85-31.62,15.43-34.39,24.56-65.33,28-93.15,9.23-74-21.69-126.07-80.71-162.76s-146.1-58.09-249.35-70.95c-265-33-636.58-9.75-912.45-44.12-187.44-23.34-330.65-73.3-366.34-185.4l-.44.14c35.85,112.43,179.26,162.36,366.73,185.72C-842.5-283.68-471-306.94-206-273.93-102.77-261.07-15.73-239.68,43.18-203s89.68,88.46,80.49,162.31c-3.46,27.77-12.58,58.66-28,93C90.12,64.67,86.89,75.2,85.79,84c-1.41,11.29.67,19.84,5.82,25.88s13.33,9.56,24.07,10.9C152,125.32,217.81,105,296.18,72.06,531.24-26.83,879.07-239.81,879.07-239.82Z" transform="translate(1585.83 516.46)"/><path class="cls-5" d="M863-237.81s-2.4,1.48-6.93,4.24c-34,20.7-187.81,113.73-350,199.49C425,8.8,341.82,49.86,270.51,79.15S139.75,126,106.21,121.76C95.64,120.45,87.66,117,82.67,111.1s-7-14.22-5.63-25.37C78.1,77.18,81.18,67,86.48,55c15-33.93,23.94-64.51,27.37-92.08,9.35-75-22-127.67-81.77-164.77s-147.95-58.71-252.37-71.72c-264.11-32.89-632.18-10.8-907.25-45.07-189.39-23.58-334.63-73.9-371.56-187.07l-.44.14C-1462.45-392-1317-341.77-1127.6-318.17-852.46-283.9-484.39-306-220.35-273.1c104.4,13,192.52,34.6,252.19,71.65S122.71-112,113.4-37.12c-3.43,27.51-12.34,58-27.34,91.95-5.31,12-8.41,22.23-9.48,30.84-1.4,11.23.65,19.72,5.74,25.73s13.2,9.5,23.83,10.82c36,4.48,101.24-15.78,179-48.66,233.11-98.64,578.14-311,578.15-311Z" transform="translate(1585.83 516.46)"/><path class="cls-5" d="M847.18-235.4s-2.37,1.47-6.86,4.22C806.64-210.54,654-117.79,493.17-32.28,412.74,10.47,330.26,51.42,259.55,80.64S129.9,127.33,96.67,123.18c-10.46-1.3-18.35-4.74-23.29-10.58s-6.94-14.14-5.56-25.22c1-8.33,4-18.23,9.05-29.83,14.59-33.46,23.3-63.67,26.7-91,9.48-76-22.31-129.32-82.85-166.84s-149.82-59.34-255.44-72.49c-263.12-32.78-627.72-11.84-901.95-46-191.34-23.83-338.62-74.5-376.81-188.75l-.44.14c38.34,114.59,185.83,165.22,377.19,189.07,274.3,34.16,638.89,13.23,902,46,105.59,13.15,194.82,35,255.25,72.43s92.08,90.55,82.65,166.39C99.72-6.24,91,23.93,76.44,57.37c-5.07,11.62-8,21.56-9.08,29.95C66,98.48,68,106.92,73,112.89s13.06,9.44,23.58,10.75C132.28,128.07,197,107.86,274,75.06,505.18-23.32,847.42-235,847.43-235Z" transform="translate(1585.83 516.46)"/><path class="cls-5" d="M831.36-233l-6.81,4.21c-33.41,20.57-184.77,113-344.29,198.31C400.5,12.15,318.7,53,248.59,82.12S120.05,128.71,87.13,124.6c-10.35-1.29-18.16-4.7-23-10.51s-6.87-14-5.5-25.07c1-8.11,3.84-17.71,8.66-28.93,14.18-33,22.67-62.81,26-89.82,9.6-77-22.64-131-84-168.93s-151.71-60-258.55-73.29c-262.1-32.64-623.2-12.85-896.55-46.9-193.3-24.07-342.64-75.09-382.1-190.44l-.43.15c39.61,115.68,189.16,166.67,382.48,190.75,273.4,34.05,634.5,14.26,896.54,46.9,106.81,13.3,197.15,35.32,258.37,73.22s93.3,91.62,83.74,168.49C89.47-2.83,81,27,66.83,59.91,62,71.15,59.15,80.8,58.14,89c-1.39,11.1.61,19.5,5.59,25.43s12.92,9.37,23.34,10.67c35.34,4.39,99.46-15.79,175.87-48.49C492.14-21.56,831.6-232.61,831.6-232.61Z" transform="translate(1585.83 516.46)"/><path class="cls-5" d="M815.54-230.6l-6.76,4.2C775.65-205.89,625.53-113.7,467.34-28.68c-79.1,42.51-160.21,83.23-229.72,112.3S110.19,130.1,77.58,126c-10.25-1.28-18-4.67-22.8-10.44s-6.78-14-5.42-24.92c1-7.88,3.69-17.2,8.28-28C71.39,30.15,79.67.7,83-26,92.73-104.07,60-158.7-2.08-197.08s-153.64-60.63-261.71-74.09c-261-32.51-618.64-13.84-891-47.77-195.27-24.31-346.69-75.69-387.43-192.14l-.43.16c40.89,116.77,192.51,168.11,387.8,192.44,272.46,33.93,630.05,15.26,891,47.77,108,13.45,199.52,35.69,261.53,74S92.23-104,82.53-26C79.22.59,71,30,57.21,62.45c-4.6,10.87-7.32,20.22-8.31,28.16-1.37,11,.6,19.38,5.53,25.28s12.78,9.31,23.09,10.6c35,4.35,98.58-15.79,174.34-48.42C479.1-19.8,815.78-230.2,815.78-230.21Z" transform="translate(1585.83 516.46)"/><path class="cls-5" d="M799.71-228.2,793-224C760.16-203.56,611.28-111.65,454.42-26.88c-78.43,42.39-158.86,83-227.77,112S100.33,131.48,68,127.45c-10.14-1.26-17.79-4.62-22.56-10.36s-6.7-13.87-5.35-24.77c1-7.66,3.54-16.68,7.91-27.15,13.32-32,21.38-61,24.66-87.4,9.87-79.15-23.28-134.44-86.2-173.28s-155.6-61.28-264.92-74.9c-260-32.37-614-14.81-885.41-48.61-197.24-24.56-350.76-76.28-392.79-193.85l-.43.15c42.19,117.89,195.9,169.58,393.16,194.16,271.46,33.81,625.52,16.24,885.41,48.61,109.29,13.61,201.92,36.06,264.73,74.84s95.83,93.83,86,172.83C69,4.05,60.91,33.05,47.6,65c-4.38,10.5-7,19.56-7.94,27.28-1.36,11,.58,19.26,5.46,25.12S57.76,126.64,68,127.91c34.67,4.31,97.69-15.79,172.79-48.33C466.06-18,800-227.8,800-227.8Z" transform="translate(1585.83 516.46)"/><path class="cls-5" d="M783.89-225.79l-6.65,4.17c-32.6,20.38-180.3,112-335.88,196.52C363.57,17.16,283.81,57.65,215.49,86.57S90.28,132.83,58.33,128.84c-10-1.24-17.54-4.57-22.25-10.25s-6.61-13.73-5.26-24.51c.93-7.46,3.41-16.22,7.59-26.38C51.19,36.4,59,7.89,62.21-18.08c10-80.42-23.62-136.51-87.41-175.86S-182.9-256-293.55-269.78C-552.4-302-902.85-285.49-1173.1-319.15-1372.18-343.94-1527.68-396-1571-514.66l-.44.15c43.5,119,199.19,171,398.3,195.81,270.3,33.67,620.75,17.14,879.54,49.38C-183-255.54-89.12-232.85-25.44-193.55S71.74-98.39,61.75-18.13C58.52,7.79,50.75,36.26,38,67.53,33.79,77.71,31.3,86.5,30.36,94c-1.35,10.86.56,19.07,5.37,24.87s12.47,9.16,22.54,10.41c34.3,4.26,96.75-15.79,171.22-48.25C452.85-16.31,784.13-225.4,784.13-225.4Z" transform="translate(1585.83 516.46)"/><path class="cls-5" d="M768.06-223.39l-6.58,4.16c-32.31,20.33-178.71,111.68-332.92,196C351.46,18.88,272.41,59.26,204.69,88.11S80.58,134.27,48.9,130.31c-9.93-1.23-17.4-4.55-22.07-10.21s-6.55-13.7-5.21-24.47c.9-7.21,3.25-15.65,7.18-25.39,12.46-30.9,20.08-59.08,23.28-84.8,10.14-81.37-24-138.06-88.54-177.8S-196.07-255-307.93-268.93C-565.6-301-912.54-285.62-1181.76-319.16c-201.22-25-359-77.47-403.63-197.3l-.44.17c44.83,120.14,202.77,172.52,404,197.59,269.28,33.54,616.23,18.14,873.83,50.23C-196.16-254.55-101.17-231.66-36.7-192S61.73-95.83,51.62-14.62c-3.2,25.67-10.8,53.82-23.25,84.69-3.94,9.77-6.3,18.24-7.21,25.51-1.35,10.84.55,19,5.32,24.82s12.37,9.13,22.36,10.37c34,4.23,95.92-15.79,169.73-48.16C440-14.52,768.3-223,768.31-223Z" transform="translate(1585.83 516.46)"/></g></g></g></g></svg>