<svg xmlns="http://www.w3.org/2000/svg" viewBox="0 0 36.85 10.52"><defs><style>.cls-1{fill:#0db14b;}.cls-2{fill:#fff;}</style></defs><g id="Layer_2" data-name="Layer 2"><g id="Layer_1-2" data-name="Layer 1"><rect class="cls-1" width="36.85" height="10.52" rx="1.42"/><path class="cls-2" d="M14,7.37c-.23,0-.46,0-.68,0a3.57,3.57,0,0,1-.71-.1v-4l.63-.08.64,0a4.23,4.23,0,0,1,.73.06,1.82,1.82,0,0,1,.57.2,1,1,0,0,1,.37.36,1.07,1.07,0,0,1,.14.55.88.88,0,0,1-.48.79,1,1,0,0,1,.54.41,1.24,1.24,0,0,1,.14.58,1.12,1.12,0,0,1-.47,1A2.45,2.45,0,0,1,14,7.37Zm-.48-2.58h.46a1.22,1.22,0,0,0,.62-.11.38.38,0,0,0,.18-.35A.37.37,0,0,0,14.54,4a1.37,1.37,0,0,0-.56-.1h-.26l-.25,0Zm0,.72V6.58l.22,0H14a1.66,1.66,0,0,0,.68-.12A.45.45,0,0,0,14.89,6a.44.44,0,0,0-.21-.41,1.31,1.31,0,0,0-.62-.12Z"/><path class="cls-2" d="M18.22,7.41a2.15,2.15,0,0,1-.76-.13,1.27,1.27,0,0,1-.52-.34,1.44,1.44,0,0,1-.31-.52,2,2,0,0,1-.1-.67V3.16h.94V5.67a1.75,1.75,0,0,0,.05.43.81.81,0,0,0,.16.29.63.63,0,0,0,.24.16,1,1,0,0,0,.31,0,.74.74,0,0,0,.55-.21A1,1,0,0,0,19,5.67V3.16h.93V5.75a2,2,0,0,1-.1.67,1.48,1.48,0,0,1-.31.53,1.49,1.49,0,0,1-.53.33A2.26,2.26,0,0,1,18.22,7.41Z"/><path class="cls-2" d="M22.36,4.87c.16-.28.33-.57.48-.85s.29-.57.42-.86h1c-.23.45-.46.88-.71,1.3s-.5.85-.77,1.27V7.32h-.94V5.74c-.27-.42-.53-.84-.77-1.27s-.49-.86-.72-1.31h1.09c.13.29.27.58.41.86S22.19,4.59,22.36,4.87Z"/></g></g></svg>